<ttFont>
<head>
    <!-- Most of this table will be recalculated by the compiler -->
    <tableVersion value="1.0"/>
    <fontRevision value="2.004"/>
    <checkSumAdjustment value="0x236fb623"/>
    <magicNumber value="0x5f0f3cf5"/>
    <flags value="00000000 00000011"/>
    <unitsPerEm value="1000"/>
    <created value="Thu Oct  8 10:00:28 2009"/>
    <modified value="Thu Oct  8 10:00:28 2009"/>
    <xMin value="-460"/>
    <yMin value="-309"/>
    <xMax value="1469"/>
    <yMax value="1154"/>
    <macStyle value="00000000 00000010"/>
    <lowestRecPPEM value="3"/>
    <fontDirectionHint value="2"/>
    <indexToLocFormat value="0"/>
    <glyphDataFormat value="0"/>
  </head>
          <CharString index="0">
            752 345 rmoveto
            210 45 -111 161 -166 hhcurveto
            -170 -176 -163 -208 -45 hvcurveto
            -212 -45 115 -155 163 hhcurveto
            167 179 157 210 44 hvcurveto
            -85 15 rmoveto
            -195 -42 -134 -122 -114 hhcurveto
            -118 -78 125 192 41 hvcurveto
            183 38 134 109 112 hhcurveto
            116 83 -113 -179 -38 hvcurveto
            return
          </CharString>
          <CharString index="1">
            461 219 rmoveto
            7 34 15 75 -27 60 rrcurveto
            62 -27 -59 11 -36 hhcurveto
            -111 -113 -106 -129 -27 72 callgsubr
            74 -105 120 hhcurveto
            63 62 24 28 45 hvcurveto
            8 65 rlineto
            -52 -75 -66 -4 -23 hhcurveto
            -80 -49 71 98 18 hvcurveto
            263 55 rmoveto
            -247 hlineto
            76 32 64 50 57 hhcurveto
            52 49 -34 -92 -7 hvcurveto
            return
          </CharString>
          <CharString index="2">
            554 132 callsubr
            -126 hlineto
            -12 -12 -1 -12 hhcurveto
            -209 hlineto
            55 259 rlineto
            330 hlineto
            13 61 rlineto
            -330 hlineto
            50 237 rlineto
            138 hlineto
            12 12 -1 12 hhcurveto
            183 hlineto
            14 65 rlineto
            -446 hlineto
            -147 -691 rlineto
            return
          </CharString>
          <CharString index="3">
            rmoveto
            3 63 rlineto
            -70 -62 -19 -13 -33 hvcurveto
            17 -17 -31 15 -40 hhcurveto
            -86 -89 -72 -91 -19 hvcurveto
            -8 -37 6 -36 14 -26 -38 -41 -8 -39 -1 -5 -6 -26 3 -29 13 -21 -59 -31 -22 -46 -5 -26 rrcurveto
            -75 -16 86 -60 122 hhcurveto
            123 112 59 77 16 hvcurveto
            139 30 -167 0 -39 hhcurveto
            -88 hlineto
            -13 -45 0 53 11 hvcurveto
            2 11 8 16 9 9 rrcurveto
            -15 17 30 -14 37 hhcurveto
            hintmask 1111001101000000
            90 86 74 89 19 hvcurveto
            10 48 -14 37 -8 15 4 -1 rcurveline
            22 29 4 24 hhcurveto
            18 40 -3 0 hvcurveto
            -195 -100 rmoveto
            -78 -17 -52 -28 -43 hhcurveto
            -37 -48 23 83 18 hvcurveto
            83 18 57 23 37 hhcurveto
            43 41 -28 -78 -17 hvcurveto
            13 -364 rmoveto
            -44 -10 -76 -33 -82 hhcurveto
            -81 -64 31 47 10 hvcurveto
            3 1 13 65 78 hhcurveto
            90 hlineto
            hintmask 0000000000100000
            22 113 0 -69 -14 hvcurveto
            return
          </CharString>
          <CharString index="4">
            435 21 callsubr
            -78 hlineto
            -61 -290 rlineto
            -75 -16 -64 -35 -64 hhcurveto
            -71 -1 26 43 9 hvcurveto
            70 331 -32 callgsubr
            -71 -335 rlineto
            -72 -15 13 -48 83 hhcurveto
            53 74 16 43 58 hvcurveto
            -10 -48 rlineto
            return
          </CharString>
          <CharString index="5">
            36 callgsubr
            -16 13 rrcurveto
            15 -16 -25 5 -31 hhcurveto
            -35 -37 93 callsubr
            6 -75 callgsubr
            9 hvcurveto
            7 -95 callgsubr
            5 25 20 13 37 20 rlinecurve
            15 9 20 -24 callgsubr
          </CharString>
          <CharString index="6">
            rmoveto
            -97 134 rlineto
            -60 hlineto
            -155 -134 rlineto
            59 hlineto
            118 97 76 -97 rlineto
            return
          </CharString>
          <CharString index="7">
            617 hmoveto
            -129 326 110 30 82 71 17 81 rlinecurve
            99 21 -90 87 -143 hhcurveto
            -241 -82 callsubr
            86 hlineto
            67 317 rlineto
            158 hlineto
            121 -317 rlineto
            88 508 rmoveto
            -71 -15 -77 -59 -118 hhcurveto
            -144 hlineto
            56 260 124 callsubr
            116 53 -59 -71 -15 hvcurveto
            return
          </CharString>
          <CharString index="8">
            -17 -82 2 -1 rlineto
            22 hlineto
            -37 -28 rlineto
            32 -40 -50 18 -56 hhcurveto
            -86 -88 -43 -66 -69 hvcurveto
            -77 -73 -50 -94 -21 -96 -20 -94 10 -93 47 -72 rrcurveto
            -65 41 70 -42 86 hhcurveto
            86 88 42 65 69 hvcurveto
            76 72 51 93 20 94 rrcurveto
            -85 17 rmoveto
            -17 -80 -35 -80 -60 -66 rrcurveto
            -53 -49 -65 -39 -65 hhcurveto
            -65 -49 39 53 -25 hvcurveto
            -32 66 -1 80 17 80 15 74 35 74 58 59 rrcurveto
            51 49 65 34 63 hhcurveto
            63 51 -34 -51 27 hvcurveto
            32 -59 3 -74 -15 -74 rrcurveto
            return
          </CharString>
          <CharString index="9">
            597 45 rmoveto
            8 69 -33 -20 -33 -19 -36 -10 rlinecurve
            -11 -35 -35 -1 -34 hhcurveto
            -65 -51 35 51 -30 hvcurveto
            -34 59 -6 74 16 75 16 75 38 75 58 59 rrcurveto
            51 52 66 35 65 hhcurveto
            30 31 -3 -9 27 hvcurveto
            28 -9 25 -15 22 -18 31 82 rcurveline
            -27 12 -29 10 -31 6 rrcurveto
            6 -29 -32 2 -32 hhcurveto
            -88 -89 -40 -65 -73 hvcurveto
            -77 -70 -51 -91 -20 -93 -20 -93 13 -91 47 -69 rrcurveto
            -65 45 73 -40 88 hhcurveto
            35 35 1 10 36 hvcurveto
            36 9 35 18 34 18 rrcurveto
            return
          </CharString>
          <CharString index="10">
            -113 694 rlineto
            -88 hlineto
            -409 -39 callgsubr
            74 hlineto
            120 204 rlineto
            return
          </CharString>
          <CharString index="11">
            -85 callgsubr
            hintmask 00110000
            return
          </CharString>
          <CharString index="12">
            -29 callsubr
            -74 -17 -65 -37 -48 hhcurveto
            -51 -47 39 72 13 hvcurveto
            -61 hlineto
            -107 -20 64 -40 callsubr
            return
          </CharString>
          <CharString index="13">
            540 444 rmoveto
            -75 hlineto
            -197 -318 -12 -46 -6 -23 rrcurveto
            -1 hlineto
            8 67 -40 186 -2 9 -28 125 rcurveline
            -79 hlineto
            100 -444 -55 -90 rlineto
            -58 -38 -17 0 -14 hhcurveto
            -16 -32 4 12 -27 hvcurveto
            -8 -65 rlineto
            -5 21 27 -3 22 hhcurveto
            return
          </CharString>
          <CharString index="14">
            -29 callsubr
            hintmask 00100000
            -34 -9 -17 -86 callgsubr
            hintmask 00010000
            -34 callgsubr
            hintmask 00100000
            -55 callsubr
            hintmask 00010000
            34 9 -88 callsubr
            hintmask 00100000
            -13 16 62 callsubr
            19 hvcurveto
            endchar
          </CharString>
          <CharString index="15">
            1077 694 rmoveto
            -72 hlineto
            -158 -314 -45 -89 -84 -168 -16 -51 rlinecurve
            -1 hlineto
            0 6 53 -18 228 vhcurveto
            -25 341 rlineto
            -81 hlineto
            -157 -312 -38 -77 -87 -175 -17 -56 rlinecurve
            -1 hlineto
            4 40 -6 98 -1 33 -11 167 rcurveline
            -21 282 rlineto
            -86 hlineto
            55 -39 callgsubr
            81 hlineto
            174 347 36 73 75 149 17 52 rlinecurve
            1 hlineto
            -2 -30 3 -95 7 -95 30 -401 rcurveline
            87 hlineto
            return
          </CharString>
          <CharString index="16">
            222 rmoveto
            128 27 -42 112 -96 hhcurveto
            -32 -78 -8 -75 -76 hvcurveto
            161 47 96 80 92 hhcurveto
            38 30 -7 -14 32 hvcurveto
            13 59 rlineto
            20 -47 -41 0 -14 hhcurveto
            -141 -156 -141 -215 -46 hvcurveto
            -283 -60 111 -61 85 hhcurveto
            60 48 23 45 49 hvcurveto
            56 51 28 46 17 79 rrcurveto
            -82 hmoveto
            -7 -34 -10 -46 -33 -41 rrcurveto
            -28 -22 -34 -34 -57 hhcurveto
            -106 17 147 33 4 hvcurveto
            3 14 0 2 4 12 rrcurveto
            74 15 62 80 83 hhcurveto
            48 23 -25 -37 12 hvcurveto
            13 -37 -5 -35 -10 -45 rrcurveto
            endchar
          </CharString>
          <CharString index="17">
            -39 -29 rlineto
            29 -30 -41 17 -47 hhcurveto
            -59 -62 -27 -44 -49 hvcurveto
            -52 -46 -35 -62 -13 -63 -13 -60 10 -59 32 -44 rrcurveto
            -42 32 50 -25 59 hhcurveto
            59 60 25 42 50 hvcurveto
            50 44 36 59 13 60 rrcurveto
            hintmask 1100010100000000
            13 63 -9 62 -32 46 -2 2 rcurveline
            -46 -161 rmoveto
            -10 -46 -19 -46 -37 -36 rrcurveto
            -32 -31 -42 -18 -40 hhcurveto
            -40 -34 18 32 -17 hvcurveto
            -21 36 -1 46 10 46 9 44 21 44 35 33 rrcurveto
            31 31 41 17 40 hhcurveto
            hintmask 0000001000000000
            39 34 -17 -31 19 hvcurveto
            21 -33 1 -44 -9 -44 rrcurveto
            return
          </CharString>
          <CharString index="18">
            rmoveto
            -27 167 -32 callgsubr
            44 -167 rlineto
            -106 hmoveto
            -27 167 -32 callgsubr
            44 108 callsubr
          </CharString>
          <CharString index="19">
            17 24 26 hhcurveto
            23 18 -14 -19 23 hvcurveto
            return
          </CharString>
          <CharString index="20">
            424 40 rmoveto
            8 67 rlineto
            -40 -60 -57 -14 -51 hhcurveto
            -83 -40 72 98 20 hvcurveto
            78 17 57 96 106 hhcurveto
            52 33 -8 -36 47 hvcurveto
            26 65 rlineto
            34 -52 -32 9 -61 hhcurveto
            -139 -107 -121 -118 -25 hvcurveto
            -124 -26 68 -109 125 hhcurveto
            54 58 14 37 62 hvcurveto
            return
          </CharString>
          <CharString index="21">
            125 callgsubr
            hintmask 1000000110010000
            23 hlineto
            -45 -32 6 32 -32 callgsubr
            -63 -298 rlineto
            -57 -12 -62 -45 -62 hhcurveto
            hintmask 0000010000000000
            -33 -18 2 12 -14 hvcurveto
            hintmask 0000100000000000
            -11 11 0 17 5 24 rrcurveto
            hintmask 0000000100000000
            71 334 -32 callgsubr
            hintmask 0000010000000000
            -71 -334 rlineto
            hintmask 1000001001000000
            -8 -39 0 -30 14 -23 rrcurveto
            -21 13 28 -8 32 hhcurveto
            70 69 21 38 49 hvcurveto
            -10 -48 rlineto
            75 hlineto
            79 372 rlineto
            return
          </CharString>
          <CharString index="22">
            rmoveto
            -59 hlineto
            -118 -97 -76 97 rlineto
            -59 hlineto
            97 -134 rlineto
            60 hlineto
            endchar
          </CharString>
          <CharString index="23">
            rmoveto
            19 89 -20 callsubr
            return
          </CharString>
          <CharString index="24">
            -20 92 callsubr
            155 77 77 83 -61 77 16 83 -66 83 -77 77 hintmask 0000000001000000
            838 694 rmoveto
            1 vlineto
            hintmask 0010000000100000
            17 82 -1 1 rlineto
            -81 52 callsubr
            1 -1 rlineto
            hintmask 1000111010010000
            -78 callgsubr
            hintmask 0101000000000000
            return
          </CharString>
          <CharString index="25">
            -33 callsubr
            -39 callgsubr
            return
          </CharString>
          <CharString index="26">
            86 -27 86 hintmask 01000100
            811 694 rmoveto
            -88 hlineto
            -204 -226 -22 -26 -81 -95 -13 31 1 2 -12 24 rlinecurve
            -136 290 rlineto
            -105 hlineto
            198 -416 rlineto
            hintmask 10001000
            -59 -278 rlineto
            86 hlineto
            hintmask 01000100
            59 277 rlineto
            return
          </CharString>
          <CharString index="27">
            rmoveto
            -59 hlineto
            -122 -123 -70 123 rlineto
            -59 hlineto
            89 -172 rlineto
            60 hlineto
            endchar
          </CharString>
          <CharString index="28">
            -101 callsubr
            endchar
          </CharString>
          <CharString index="29">
            rmoveto
            -78 hlineto
            -169 -167 rlineto
            61 hlineto
            endchar
          </CharString>
          <CharString index="30">
            -47 30 -89 -116 rlineto
            11 -22 -32 9 -30 hhcurveto
            -121 -120 -109 -132 -28 hvcurveto
            -22 -102 44 -53 20 -24 -95 -123 rcurveline
            46 -30 93 120 rlineto
            -14 28 29 -5 25 hhcurveto
            118 121 100 131 28 hvcurveto
            -125 167 rmoveto
            -224 -288 -26 46 10 54 5 21 rlinecurve
            118 25 81 62 75 hhcurveto
            20 18 -4 -9 16 hvcurveto
            50 -167 rmoveto
            -115 -25 -81 -55 -73 hhcurveto
            -19 -19 3 8 -15 hvcurveto
            222 286 11 -21 12 -42 -13 -64 rlinecurve
            return
          </CharString>
          <CharString index="31">
            560 hmoveto
            14 66 rlineto
            -96 hlineto
            -263 -2 rlineto
            -32 hlineto
            510 589 9 41 rlineto
            -485 hlineto
            -14 -62 rlineto
            200 hlineto
            12 13 1 12 hhcurveto
            136 hlineto
            -511 -590 -9 -43 rlineto
            return
          </CharString>
          <CharString index="32">
            183 hmoveto
            148 694 -62 callgsubr
            return
          </CharString>
          <CharString index="33">
            740 219 rmoveto
            35 7 44 207 -166 hhcurveto
            -54 -63 -27 -50 -51 hvcurveto
            48 -20 -48 29 -57 hhcurveto
            -64 -49 -16 -27 -53 hvcurveto
            -8 -66 rlineto
            34 55 50 16 57 hhcurveto
            45 34 -38 -76 -16 hvcurveto
            -8 -41 -58 -3 -220 -10 -26 -120 rlinecurve
            -33 -7 -1 -92 96 hhcurveto
            28 144 3 74 63 hvcurveto
            -74 48 74 -3 25 hhcurveto
            48 56 16 36 52 hvcurveto
            8 65 rlineto
            -49 -64 -58 -7 -28 hhcurveto
            -71 -55 62 107 18 hvcurveto
            245 55 rmoveto
            return
          </CharString>
          <CharString index="34">
            613 35 callgsubr
            -65 -303 rlineto
            -341 hlineto
            65 303 -62 callgsubr
            89 hlineto
            70 330 rlineto
            341 hlineto
            -70 -330 rlineto
            return
          </CharString>
          <CharString index="35">
            972 -22 61 -39 70 0 61 199 61 169 70 -1 65 -39 61 hstemhm
            496 91 280 91 0 91 hintmask 0101100010000000
            929 132 callsubr
            -125 hlineto
            -12 -12 -1 -12 hhcurveto
            -209 hlineto
            55 260 rlineto
            329 hlineto
            13 61 rlineto
            -329 hlineto
            51 239 rlineto
            138 hlineto
            hintmask 0000010010000000
            12 12 -1 12 hhcurveto
            hintmask 0000010001000000
            182 hlineto
            14 65 rlineto
            -396 hlineto
            -21 -14 1 10 -43 hvcurveto
            hintmask 1000001000000000
            7 -32 -19 4 -28 hhcurveto
            -173 -191 -159 -212 -45 hvcurveto
            -214 -45 127 -153 170 hhcurveto
            28 20 4 7 35 hvcurveto
            hintmask 0100000000000000
            8 39 17 3 27 hhcurveto
            27 347 rmoveto
            hintmask 1010101100000000
            -25 -116 -14 -67 -11 -33 rrcurveto
            -57 -20 -21 -35 -84 hhcurveto
            -141 -77 145 176 38 hvcurveto
            163 34 137 132 140 hhcurveto
            83 7 -34 -61 -5 hvcurveto
            -3 -33 -19 -91 -19 -89 rrcurveto
            endchar
          </CharString>
          <CharString index="36">
            402 hmoveto
            13 62 rlineto
            -147 hlineto
            -12 -12 -1 -12 hhcurveto
            -85 hlineto
            339 344 8 39 rlineto
            -358 hlineto
            -12 -59 rlineto
            139 hlineto
            12 12 1 12 hhcurveto
            78 hlineto
            -340 -345 -9 -41 rlineto
            return
          </CharString>
          <CharString index="37">
            774 17 callgsubr
            -114 hlineto
            -203 -339 -54 -91 -73 -124 -21 -47 rlinecurve
            -1 hlineto
            -1 21 -4 37 -6 42 -69 414 rcurveline
            -15 87 rlineto
            -113 48 callgsubr
            132 620 rlineto
            1 hlineto
            -1 -32 17 -109 11 -68 66 -389 rcurveline
            73 hlineto
            207 348 75 127 16 29 42 72 10 23 rlinecurve
            1 -1 -132 -620 rlineto
            return
          </CharString>
          <CharString index="38">
            700 -97 callgsubr
            return
          </CharString>
          <CharString index="39">
            499 hmoveto
            14 66 -267 -2 rlineto
            -49 hlineto
            134 630 -62 callgsubr
            return
          </CharString>
          <CharString index="40">
            -187 rmoveto
            -79 callgsubr
            8 44 return
          </CharString>
          <CharString index="41">
            -34 -8 -17 -86 callgsubr
            return
          </CharString>
          <CharString index="42">
            156 21 callsubr
            -75 hlineto
            -94 -444 rlineto
            return
          </CharString>
          <CharString index="43">
            667 21 -35 callsubr
            return
          </CharString>
          <CharString index="44">
            778 -11 61 169 55 126 61 hstemhm
            518 78 0 72 13 72 hintmask 11101100
            796 219 rmoveto
            87 18 11 155 -144 hhcurveto
            -77 -72 -51 -48 -40 hvcurveto
            95 -44 -83 4 -26 hhcurveto
            -114 -119 -104 -132 -28 hvcurveto
            -133 -28 75 -103 114 hhcurveto
            39 77 11 90 81 hvcurveto
            -58 25 58 -43 77 hhcurveto
            67 57 29 23 33 hvcurveto
            8 65 rlineto
            -43 -56 -56 -13 -38 hhcurveto
            -75 -52 65 104 18 hvcurveto
            246 55 rmoveto
            hintmask 01010000
            -230 hlineto
            hintmask 11101000
            72 31 62 54 57 hhcurveto
            52 35 -39 -87 -7 hvcurveto
            -322 -44 rmoveto
            -123 -26 -80 -57 -68 hhcurveto
            -71 -56 60 120 26 hvcurveto
            115 24 81 55 70 hhcurveto
            65 61 -49 -121 -26 hvcurveto
            endchar
          </CharString>
          <CharString index="45">
            11 callgsubr
            283 167 11 callgsubr
            endchar
          </CharString>
          <CharString index="46">
            722 0 71 584 61 hstemhm
            144 89 -79 89 275 89 67 89 hintmask 11011100
            677 132 callsubr
            -85 hlineto
            -12 -12 -1 -12 hhcurveto
            -53 hlineto
            26 56 38 48 49 61 56 69 58 74 18 84 rrcurveto
            140 30 -111 114 -169 hhcurveto
            -173 -156 -116 -138 -30 hvcurveto
            -18 -84 26 -71 34 -88 rrcurveto
            hintmask 10100000
            23 -63 12 -41 2 -45 rrcurveto
            -53 hlineto
            -12 -12 1 -12 hhcurveto
            -85 hlineto
            -15 -71 rlineto
            245 hlineto
            10 50 3 53 -31 113 rrcurveto
            hintmask 11010100
            -23 81 -23 81 18 83 rrcurveto
            114 24 113 80 119 hhcurveto
            123 76 -82 -112 -24 hvcurveto
            -17 -78 -51 -75 -55 -80 -60 -86 -41 -62 -18 -80 rrcurveto
            endchar
          </CharString>
          <CharString index="47">
            444 -11 61 169 55 126 61 return
          </CharString>
          <CharString index="48">
            -77 -79 hhcurveto
            -34 -31 8 30 -30 hvcurveto
            -42 -53 rlineto
            -25 29 32 -21 62 hhcurveto
            131 151 139 218 46 hvcurveto
            -70 76 rmoveto
            -82 -17 -65 -74 -79 hhcurveto
            -47 -23 23 37 -13 hvcurveto
            -14 39 7 37 9 43 return
          </CharString>
          <CharString index="49">
            rmoveto
            -77 callgsubr
            return
          </CharString>
          <CharString index="50">
            597 0 70 259 61 236 65 return
          </CharString>
          <CharString index="51">
            670 -29 callsubr
            hintmask 10000000
            -66 callsubr
            hintmask 01000000
            13 -16 -18 12 -25 hhcurveto
            hintmask 10000000
            14 callsubr
            hintmask 01000000
            34 8 -88 callsubr
            hintmask 10000000
            76 callsubr
            hintmask 01000000
            18 callsubr
          </CharString>
          <CharString index="52">
            -47 -58 -53 callsubr
            return
          </CharString>
          <CharString index="53">
            120 25 -49 82 -70 hhcurveto
            -73 -85 -84 -117 -25 hvcurveto
            -120 -25 51 114 callsubr
            25 hvcurveto
            return
          </CharString>
          <CharString index="54">
            -41 -78 -19 hvcurveto
            61 hlineto
            return
          </CharString>
          <CharString index="55">
            752 345 rmoveto
            210 45 -111 161 -166 hhcurveto
            -170 -176 -163 -208 -45 hvcurveto
            -43 -203 104 -151 153 -12 -40 -28 -32 -38 -6 -40 rrcurveto
            -71 callgsubr
            -79 callgsubr
            6 35 32 28 39 23 152 26 150 147 40 190 rrcurveto
            -85 15 rmoveto
            -195 -42 -134 -122 -114 hhcurveto
            -118 -78 125 192 41 hvcurveto
            183 38 134 109 112 hhcurveto
            116 83 -113 -179 -38 hvcurveto
            return
          </CharString>
          <CharString index="56">
            rmoveto
            -97 167 -32 callgsubr
            114 108 callsubr
          </CharString>
          <CharString index="57">
            -20 hstemhm
            hintmask 11100000
            -107 callgsubr
            hintmask 00011000
            61 callsubr
            return
          </CharString>
          <CharString index="58">
            141 rmoveto
            280 59 -105 63 -85 hhcurveto
            -70 -48 -30 -37 -42 hvcurveto
            -78 -68 -16 -66 -9 -43 rrcurveto
            -128 -27 42 -112 96 hhcurveto
            62 70 29 54 55 hvcurveto
            -161 -46 -93 -59 callsubr
            9 44 10 41 37 44 rrcurveto
            29 27 34 28 52 hhcurveto
            98 -12 -136 -49 -9 hvcurveto
            -7 -2 -10 -2 -7 vhcurveto
            endchar
          </CharString>
          <CharString index="59">
            326 rmoveto
            17 79 16 93 -25 81 rrcurveto
            75 -25 -64 24 -51 hhcurveto
            -59 -76 -27 -89 -60 hvcurveto
            -48 -73 -23 -83 -17 -80 -16 -79 -12 -73 14 -73 rrcurveto
            -96 20 70 -27 57 hhcurveto
            73 72 41 69 47 hvcurveto
            44 65 24 66 22 107 rrcurveto
            -75 12 rmoveto
            -14 -66 -14 -63 -31 -63 rrcurveto
            -91 -45 -57 -16 -32 hhcurveto
            hintmask 01001000
            -52 -33 38 72 -4 hvcurveto
            hintmask 00010000
            -4 57 10 54 17 78 rrcurveto
            hintmask 00101000
            13 63 13 60 29 55 rrcurveto
            19 10 42 82 81 hhcurveto
            78 10 -76 -18 3 hvcurveto
            7 -56 -14 -67 -13 -62 rrcurveto
            endchar
          </CharString>
          <CharString index="60">
            -61 callgsubr
            119 110 96 106 22 hvcurveto
            -15 323 rmoveto
            -72 -15 -61 -46 -72 hhcurveto
            -77 -37 49 69 15 hvcurveto
            69 15 59 48 74 hhcurveto
            79 34 -52 -65 -14 hvcurveto
            -66 -322 rmoveto
            -97 -20 -72 -45 -64 hhcurveto
            -69 -48 48 94 20 hvcurveto
            105 23 80 38 54 hhcurveto
            58 60 -40 -103 -22 hvcurveto
            endchar
          </CharString>
          <CharString index="61">
            722 0 56 259 64 259 56 hstemhm
            163 86 -72 86 388 86 cntrmask 11100000
            hintmask 11101000
            95 callsubr
            -67 -315 rlineto
            -78 117 callgsubr
            hintmask 11110100
            78 hlineto
            -67 -315 44 callsubr
            55 259 rlineto
            101 hlineto
            14 64 rlineto
            hintmask 11101100
            -101 hlineto
            55 259 102 callsubr
          </CharString>
          <CharString index="62">
            39 callsubr
            -46 39 72 13 hvcurveto
            -61 hlineto
            -107 -21 65 -40 callsubr
            endchar
          </CharString>
          <CharString index="63">
            101 callgsubr
            19 hvcurveto
            endchar
          </CharString>
          <CharString index="64">
            516 220 rmoveto
            134 28 -77 107 -119 hhcurveto
            -123 -120 -110 -131 -28 hvcurveto
            -27 -126 72 -95 108 -9 -48 -29 -40 -43 -7 -45 44 callgsubr
            43 47 33 49 25 98 27 88 88 23 108 rrcurveto
            -76 10 rmoveto
            -118 -25 -81 -59 -74 hhcurveto
            -69 -60 56 121 26 hvcurveto
            121 26 86 49 65 hhcurveto
            70 61 -52 -118 -25 hvcurveto
            return
          </CharString>
          <CharString index="65">
            231 rmoveto
            15 68 4 69 -31 52 rrcurveto
            46 -28 -55 18 -59 hhcurveto
            -59 -63 -18 -46 -48 hvcurveto
            -53 -52 -24 -69 -15 -68 -14 -68 -5 -69 31 -52 rrcurveto
            -46 28 55 -18 59 hhcurveto
            59 63 18 46 48 hvcurveto
            53 52 25 69 14 68 rrcurveto
            -79 hmoveto
            -11 -50 -16 -52 -37 -42 rrcurveto
            -31 -27 -41 -17 -38 hhcurveto
            -38 -33 17 31 -15 hvcurveto
            -19 42 6 52 11 50 11 50 16 52 37 42 rrcurveto
            31 27 41 17 38 hhcurveto
            38 33 -17 -31 15 hvcurveto
            19 -42 -6 -52 -11 -50 rrcurveto
            endchar
          </CharString>
          <CharString index="66">
            hmoveto
            -77 callgsubr
            return
          </CharString>
          <CharString index="67">
            -71 86 hhcurveto
            89 94 73 105 24 hvcurveto
            return
          </CharString>
          <CharString index="68">
            601 -91 callgsubr
            -55 -40 -43 -9 -3 callgsubr
            54 40 43 10 hvcurveto
            return
          </CharString>
          <CharString index="69">
            148 694 return
          </CharString>
          <CharString index="70">
            -20 hstemhm
            hintmask 11000000
            -105 callgsubr
            hintmask 00110000
            13 callgsubr
            return
          </CharString>
          <CharString index="71">
            -14 rmoveto
            19 91 -56 62 -64 21 85 41 49 68 14 63 rrcurveto
            86 18 -69 66 -99 hhcurveto
            -77 -82 -40 -70 -57 hvcurveto
            25 -54 rlineto
            70 44 73 36 61 hhcurveto
            52 42 -30 -64 -13 hvcurveto
            -13 -61 -54 -59 -64 -14 -6 -1 -2 0 -72 -6 -13 -61 rcurveline
            71 hlineto
            hintmask 10010000
            108 2 -93 -50 -11 hvcurveto
            -78 -16 -60 -64 -77 hhcurveto
            -69 -72 35 68 -29 hvcurveto
            -24 -60 rlineto
            -94 53 90 -10 40 hhcurveto
            122 109 97 105 22 hvcurveto
            endchar
          </CharString>
          <CharString index="72">
            -21 204 56 434 return
          </CharString>
          <CharString index="73">
            568 392 rmoveto
            3 63 rlineto
            -70 -62 -19 -13 -33 hvcurveto
            17 -17 -31 15 -40 hhcurveto
            -86 -89 -72 -91 -19 hvcurveto
            -8 -37 6 -36 14 -26 -38 -41 -8 -39 -1 -5 -6 -26 3 -29 13 -21 -59 -31 -22 -46 -5 -26 rrcurveto
            -75 -16 86 -60 122 hhcurveto
            123 112 59 77 16 hvcurveto
            139 30 -167 0 -39 hhcurveto
            -88 hlineto
            -13 -45 0 53 11 hvcurveto
            2 11 8 16 9 9 rrcurveto
            -15 17 30 -14 37 hhcurveto
            return
          </CharString>
          <CharString index="74">
            hlineto
            -148 return
          </CharString>
          <CharString index="75">
            132 callsubr
            -182 hlineto
            -12 -12 -1 -12 hhcurveto
            -109 hlineto
            167 132 23 18 60 42 23 18 rlinecurve
            54 45 65 53 18 85 rrcurveto
            115 25 -60 100 -132 hhcurveto
            -114 -72 -78 -86 -43 hvcurveto
            9 -17 3 -6 2 -3 1 -2 8 -13 7 -14 rrcurveto
            77 36 45 78 91 hhcurveto
            94 35 -75 -78 -17 hvcurveto
            -18 -85 -69 -57 -72 -60 -92 -71 rcurveline
            hintmask 10000000
            -150 -124 -14 -64 rlineto
            endchar
          </CharString>
          <CharString index="76">
            627 15 rmoveto
            17 14 -10 13 -8 10 -156 198 rcurveline
            239 198 12 10 17 13 -11 14 rlinecurve
            -12 14 -16 -13 -12 -10 -239 -197 rcurveline
            -156 198 -7 10 -11 13 -18 -14 rlinecurve
            -17 -14 11 -14 8 -10 156 -198 rcurveline
            -240 -198 -12 -10 -17 -13 11 -14 rlinecurve
            12 -14 16 13 12 10 240 198 rcurveline
            156 -198 8 -10 10 -13 17 14 rlinecurve
            return
          </CharString>
          <CharString index="77">
            -21 694 -20 return
          </CharString>
          <CharString index="78">
            rmoveto
            -61 hlineto
            return
          </CharString>
          <CharString index="79">
            2 35 callsubr
            hintmask 11001000
            -18 -83 rlineto
            25 hlineto
            -51 -125 rlineto
            41 hlineto
            262 126 35 callsubr
            hintmask 10010000
            -18 -83 rlineto
            25 hlineto
            -51 -125 rlineto
            41 hlineto
            endchar
          </CharString>
          <CharString index="80">
            -20 -100 callgsubr
            hintmask 00011000
            10 callgsubr
            return
          </CharString>
          <CharString index="81">
            713 hmoveto
            63 298 rlineto
            67 15 3 90 -121 hhcurveto
            -60 -58 -28 -54 -49 hvcurveto
            76 -10 -68 6 -32 hhcurveto
            -72 -56 -41 -36 -35 hvcurveto
            16 72 rlineto
            -72 hlineto
            -96 -450 rlineto
            78 hlineto
            52 245 rlineto
            68 15 44 81 74 hhcurveto
            93 -9 -65 -38 -8 hvcurveto
            -62 -291 64 callsubr
            return
          </CharString>
          <CharString index="82">
            -20 hstemhm
            226 -14 callgsubr
            77 -14 callgsubr
            hintmask 10001000
            306 486 -58 callsubr
            hintmask 10010010
            -66 callgsubr
            hintmask 10000100
            -17 callsubr
            hintmask 01100000
            return
          </CharString>
          <CharString index="83">
            203 rmoveto
            125 27 -65 99 -103 hhcurveto
            -40 -41 -15 -26 -35 hvcurveto
            44 206 rlineto
            263 hlineto
            13 64 rlineto
            -335 hlineto
            -78 -369 rlineto
            66 hlineto
            40 26 45 39 58 hhcurveto
            47 45 -41 -120 -25 hvcurveto
            -166 -36 -122 0 -9 hhcurveto
            -67 -52 39 54 -18 hvcurveto
            -45 -56 rlineto
            -57 29 60 -41 81 hhcurveto
            119 121 99 126 27 hvcurveto
            endchar
          </CharString>
          <CharString index="84">
            736 -22 65 609 64 return
          </CharString>
          <CharString index="85">
            9 rmoveto
            125 26 -64 99 -103 hhcurveto
            -40 -42 -15 -26 -34 hvcurveto
            44 206 rlineto
            263 hlineto
            13 64 rlineto
            -335 hlineto
            -78 -369 rlineto
            66 hlineto
            40 25 46 39 58 hhcurveto
            47 45 -41 -120 -26 hvcurveto
            -166 -35 -122 0 -9 hhcurveto
            -67 -53 39 54 -17 hvcurveto
            -45 -56 rlineto
            -57 29 60 -41 81 hhcurveto
            119 121 99 126 27 hvcurveto
            endchar
          </CharString>
          <CharString index="86">
            471 hmoveto
            -132 272 204 172 rlineto
            -90 hlineto
            -247 -208 98 458 rlineto
            -72 -82 callsubr
            69 hlineto
            30 141 98 83 108 -224 rlineto
            return
          </CharString>
          <CharString index="87">
            rlineto
            -89 hlineto
            return
          </CharString>
          <CharString index="88">
            371 310 rmoveto
            7 34 rlineto
            -90 hlineto
            79 372 rlineto
            -14 hlineto
            -50 -36 -60 -2 -35 -1 -8 -35 rcurveline
            25 1 34 1 38 12 -66 -312 rcurveline
            -90 hlineto
            -7 -34 rlineto
            return
          </CharString>
          <CharString index="89">
            688 -22 56 660 -20 return
          </CharString>
          <CharString index="90">
            -17 -80 rlineto
            return
          </CharString>
          <CharString index="91">
            17 -12 25 hhcurveto
            return
          </CharString>
          <CharString index="92">
            rmoveto
            -89 hlineto
            -171 122 rlineto
            111 hlineto
            endchar
          </CharString>
          <CharString index="93">
            -14 callgsubr
            49 -14 callgsubr
            return
          </CharString>
          <CharString index="94">
            89 -70 89 return
          </CharString>
          <CharString index="95">
            -95 -29 callsubr
            hintmask 10000000
            -34 -8 -18 -86 callgsubr
            hintmask 01000000
            13 -16 -17 121 callsubr
            -58 -41 -78 -18 hvcurveto
            61 hlineto
            hintmask 01000000
            34 8 -88 callsubr
            hintmask 10000000
            -13 16 18 -12 25 hhcurveto
            hintmask 01000000
            47 57 41 78 19 hvcurveto
            endchar
          </CharString>
          <CharString index="96">
            -29 callsubr
            hintmask 00010000
            -34 -9 -17 -86 callgsubr
            hintmask 00001000
            13 -16 -17 103 callsubr
            -19 hvcurveto
            61 hlineto
            hintmask 00001000
            34 9 58 callsubr
            134 callsubr
            19 hvcurveto
            endchar
          </CharString>
          <CharString index="97">
            198 934 2 callgsubr
            -198 -934 rlineto
            7 callsubr
            return
          </CharString>
          <CharString index="98">
            568 -69 callsubr
            return
          </CharString>
          <CharString index="99">
            133 28 53 8 14 hhcurveto
            40 14 -67 -73 -16 hvcurveto
            return
          </CharString>
          <CharString index="100">
            333 193 58 hstemhm
            52 265 -253 265 hintmask 10100000
            317 193 0 callsubr
          </CharString>
          <CharString index="101">
            29 callgsubr
            hstem
            14 638 vstem
            652 hmoveto
            -205 366 311 328 rlineto
            -96 hlineto
            -244 -261 -138 261 rlineto
            -104 hlineto
            185 -328 -347 -366 rlineto
            96 hlineto
            281 306 157 -306 rlineto
            endchar
          </CharString>
          <CharString index="102">
            -18 -83 rlineto
            25 hlineto
            -52 -125 rlineto
            41 hlineto
            return
          </CharString>
          <CharString index="103">
            rmoveto
            93 17 -129 31 -78 hhcurveto
            -83 -143 -31 -93 -21 hvcurveto
            78 hlineto
            50 14 92 10 43 hhcurveto
            50 88 -10 -50 -6 hvcurveto
            endchar
          </CharString>
          <CharString index="104">
            hmoveto
            13 61 rlineto
            -99 hlineto
            90 423 rlineto
            -91 hlineto
            -343 -423 -13 -61 rlineto
            hintmask 01001000
            265 hlineto
            hintmask 10010000
            -41 -194 rlineto
            79 hlineto
            hintmask 01001000
            41 194 rlineto
            -60 61 rmoveto
            -193 hlineto
            70 86 190 236 14 57 rrcurveto
            hintmask 01000100
            endchar
          </CharString>
          <CharString index="105">
            69 callsubr
            113 93 callgsubr
            hstemhm
            82 75 hintmask 11001000
            -82 callgsubr
            hintmask 00110000
            return
          </CharString>
          <CharString index="106">
            rmoveto
            120 26 -50 82 -70 hhcurveto
            -73 -84 -84 -117 -25 hvcurveto
            -120 -26 52 114 callsubr
            24 hvcurveto
            return
          </CharString>
          <CharString index="107">
            rmoveto
            12 58 rlineto
            -265 hlineto
            hintmask 11000000
            -12 -58 rlineto
            endchar
          </CharString>
          <CharString index="108">
            rmoveto
            -79 callgsubr
            8 44 50 34 52 26 94 444 rcurveline
            -75 hlineto
            -94 -444 rlineto
            11 hlineto
            122 callsubr
            rrcurveto
            -71 callgsubr
            return
          </CharString>
          <CharString index="109">
            rlineto
            8 callsubr
            return
          </CharString>
          <CharString index="110">
            hstemhm
            13 70 41 70 54 70 55 70 -57 70 return
          </CharString>
          <CharString index="111">
            22 hlineto
            -39 -29 rlineto
            29 -30 -41 17 -47 hhcurveto
            -59 -62 -27 -44 -49 hvcurveto
            -52 -46 -35 -62 -13 -63 -13 -60 10 -59 32 -44 rrcurveto
            -42 32 50 -25 59 hhcurveto
            59 60 25 42 50 hvcurveto
            50 44 36 59 13 60 rrcurveto
            return
          </CharString>
          <CharString index="112">
            -77 -17 -42 -64 -39 hhcurveto
            -11 -54 130 callgsubr
            29 52 8 14 hhcurveto
            40 14 -67 -73 -15 hvcurveto
            return
          </CharString>
          <CharString index="113">
            -44 callgsubr
            19 -24 callgsubr
          </CharString>
          <CharString index="114">
            -14 -3 -4 -19 20 hhcurveto
            20 4 19 14 3 hvcurveto
            return
          </CharString>
          <CharString index="115">
            -75 -82 callsubr
            return
          </CharString>
          <CharString index="116">
            518 525 -83 callgsubr
            return
          </CharString>
          <CharString index="117">
            54 callgsubr
            39 callgsubr
            return
          </CharString>
          <CharString index="118">
            517 -11 61 285 61 -2 61 239 -20 hstemhm
            82 78 70 75 144 78 hintmask 00100000
            527 223 rmoveto
            124 27 -45 108 -94 hhcurveto
            hintmask 11011110
            -39 -64 -10 -49 -71 hvcurveto
            return
          </CharString>
          <CharString index="119">
            278 85 callsubr
            200 57 callgsubr
            hintmask 10100000
            -18 -82 rlineto
            endchar
          </CharString>
          <CharString index="120">
            -3 callgsubr
            55 40 43 9 hvcurveto
            return
          </CharString>
          <CharString index="121">
            -47 -57 -53 callsubr
            return
          </CharString>
          <CharString index="122">
            rlineto
            75 hlineto
            82 386 rlineto
            return
          </CharString>
          <CharString index="123">
            -13 16 -16 callsubr
            return
          </CharString>
          <CharString index="124">
            278 128 callsubr
            227 83 -65 83 hintmask 01010000
            310 612 35 callsubr
            hintmask 11100000
            -5 callsubr
            endchar
          </CharString>
          <CharString index="125">
            101 callgsubr
            18 hvcurveto
            endchar
          </CharString>
          <CharString index="126">
            74 hlineto
            -82 -386 15 callsubr
            return
          </CharString>
          <CharString index="127">
            517 60 callgsubr
            return
          </CharString>
          <CharString index="128">
            hmoveto
            -16 callgsubr
            return
          </CharString>
          <CharString index="129">
            646 21 53 callsubr
            return
          </CharString>
          <CharString index="130">
            556 -22 69 279 66 258 66 return
          </CharString>
          <CharString index="131">
            855 -29 callsubr
            hintmask 00100000
            -34 -9 -17 -86 callgsubr
            hintmask 00010000
            -34 callgsubr
            hintmask 00100000
            -55 callsubr
            return
          </CharString>
          <CharString index="132">
            86 59 141 59 hstem
            338 286 rmoveto
            12 59 rlineto
            -266 hlineto
            -12 -59 rlineto
            223 -200 rmoveto
            13 59 rlineto
            -266 hlineto
            -13 -59 rlineto
            endchar
          </CharString>
          <CharString index="133">
            -20 34 callgsubr
            return
          </CharString>
          <CharString index="134">
            -20 hstem
            -9 callsubr
            return
          </CharString>
          <CharString index="135">
            hmoveto
            -41 219 134 220 rlineto
            -61 hlineto
            -151 -220 58 -219 rlineto
            return
          </CharString>
          <CharString index="136">
            278 -30 callgsubr
            return
          </CharString>
          <CharString index="137">
            21 99 callgsubr
            return
          </CharString>
          <CharString index="138">
            333 193 58 hstemhm
            75 265 -253 265 hintmask 10100000
            340 193 0 callsubr
          </CharString>
          <CharString index="139">
            76 callgsubr
            199 78 16 84 -67 84 -78 78 return
          </CharString>
          <CharString index="140">
            -88 callsubr
            hintmask 00010000
            -13 return
          </CharString>
          <CharString index="141">
            21 -21 386 58 200 61 hstem
            101 75 7 75 return
          </CharString>
          <CharString index="142">
            rmoveto
            59 callsubr
            return
          </CharString>
          <CharString index="143">
            93 callgsubr
            hstem
            return
          </CharString>
          <CharString index="144">
            631 148 rmoveto
            -78 hlineto
            -46 -9 -30 -46 -41 hhcurveto
            -30 -28 6 8 -26 hvcurveto
            13 -51 -51 14 -55 hhcurveto
            37 46 32 50 17 53 return
          </CharString>
          <CharString index="145">
            694 0 38 618 38 hstem
            74 38 return
          </CharString>
          <CharString index="146">
            -29 callsubr
            -74 -18 -65 -37 -48 hhcurveto
            -51 return
          </CharString>
          <CharString index="147">
            61 285 61 235 58 return
          </CharString>
          <CharString index="148">
            83 -65 83 93 83 -65 83 return
          </CharString>
          <CharString index="149">
            52 callgsubr
            hstemhm
            return
          </CharString>
          <CharString index="150">
            -20 32 callsubr
            hintmask 0010000000100000
            629 60 callsubr
            return
          </CharString>
          <CharString index="151">
            rlineto
            263 hlineto
            170 168 152 189 40 hvcurveto
            -86 hmoveto
            -170 -36 -128 -115 -140 hhcurveto
            -153 hlineto
            return
          </CharString>
          <CharString index="152">
            -403 109 callsubr
            return
          </CharString>
          <CharString index="153">
            -38 callsubr
            rlineto
            return
          </CharString>
          <CharString index="154">
            267 -205 64 585 -20 return
          </CharString>
          <CharString index="155">
            107 callsubr
            128 81 return
          </CharString>
          <CharString index="156">
            61 289 rlineto
            return
          </CharString>
          <CharString index="157">
            rmoveto
            17 82 rlineto
            20 5 -11 5 -14 hhcurveto
            -69 hlineto
            -5 -4 0 -1 -5 hvcurveto
            -14 -4 -5 -12 -3 -13 -14 -69 rcurveline
            return
          </CharString>
          <CharString index="158">
            514 220 rmoveto
            16 76 -18 67 -38 43 94 121 rcurveline
            return
          </CharString>
          <CharString index="159">
            hlineto
            14 callgsubr
            return
          </CharString>
          <CharString index="160">
            -21 317 61 260 56 return
          </CharString>
          <CharString index="161">
            444 -11 64 344 64 return
          </CharString>
          <CharString index="162">
            hvcurveto
            -17 26 27 -17 40 hhcurveto
            hintmask 01000000
            25 28 8 10 24 hvcurveto
            hintmask 00100000
            22 10 22 11 20 14 rrcurveto
            endchar
          </CharString>
          <CharString index="163">
            -20 hstem
            9 callsubr
            return
          </CharString>
          <CharString index="164">
            rmoveto
            20 4 -11 15 -20 hhcurveto
            -19 -20 -15 -20 -4 hvcurveto
            -19 -4 13 -16 19 hhcurveto
            20 18 16 19 4 hvcurveto
            return
          </CharString>
          <CharString index="165">
            33 callsubr
            16 return
          </CharString>
          <CharString index="166">
            18 82 rlineto
            -83 hlineto
            return
          </CharString>
          <CharString index="167">
            445 rmoveto
            17 82 return
          </CharString>
          <CharString index="168">
            136 331 -83 callgsubr
            return
          </CharString>
          <CharString index="169">
            -16 callsubr
            hintmask 00010000
            101 callgsubr
            return
          </CharString>
          <CharString index="170">
            20 callsubr
            239 -20 return
          </CharString>
          <CharString index="171">
            -27 callgsubr
            68 15 44 81 74 hhcurveto
            93 -9 -65 -38 -8 hvcurveto
            72 callsubr
            return
          </CharString>
          <CharString index="172">
            778 -44 -21 43 61 537 61 18 61 43 -20 return
          </CharString>
          <CharString index="173">
            722 -11 61 16 61 92 55 126 61 -59 59 return
          </CharString>
          <CharString index="174">
            61 28 61 200 61 -6 61 return
          </CharString>
          <CharString index="175">
            736 -22 65 610 63 return
          </CharString>
          <CharString index="176">
            342 21 -21 455 -20 return
          </CharString>
          <CharString index="177">
            736 -101 callsubr
            return
          </CharString>
          <CharString index="178">
            83 -1 73 80 80 hhcurveto
            66 38 -57 -68 -15 hvcurveto
            78 hlineto
            111 24 -65 92 -109 hhcurveto
            return
          </CharString>
          <CharString index="179">
            -62 -291 rlineto
            return
          </CharString>
          <CharString index="180">
            579 rmoveto
            14 64 rlineto
            -195 117 callgsubr
            120 -45 0 120 hhcurveto
            endchar
          </CharString>
          <CharString index="181">
            hstemhm
            71 72 232 72 16 78 0 72 12 72 return
          </CharString>
          <CharString index="182">
            -22 61 362 61 158 58 hstem
            return
          </CharString>
          <CharString index="183">
            -13 17 -16 callsubr
            return
          </CharString>
          <CharString index="184">
            19 0 20 4 hvcurveto
            return
          </CharString>
          <CharString index="185">
            3 137 29 hvcurveto
            return
          </CharString>
          <CharString index="186">
            hvcurveto
            61 hlineto
            hintmask 00000100
            34 8 112 callgsubr
            return
          </CharString>
          <CharString index="187">
            46 callgsubr
            hintmask 10010000
            -18 -83 rlineto
            endchar
          </CharString>
          <CharString index="188">
            rmoveto
            13 3 -1 21 -31 hhcurveto
            -21 -31 -8 -6 -22 hvcurveto
            -4 -1 -26 -7 -20 -2 return
          </CharString>
          <CharString index="189">
            rmoveto
            13 64 rlineto
            -195 hlineto
            -13 -64 rlineto
            120 -46 0 121 hhcurveto
            endchar
          </CharString>
          <CharString index="190">
            -19 0 -20 -4 88 callgsubr
            14 hhcurveto
            return
          </CharString>
          <CharString index="191">
            517 -11 67 callsubr
            return
          </CharString>
          <CharString index="192">
            486 83 125 -20 hstemhm
            return
          </CharString>
          <CharString index="193">
            544 -11 55 484 -20 return
          </CharString>
          <CharString index="194">
            117 callsubr
            hstemhm
            return
          </CharString>
          <CharString index="195">
            89 hintmask 11011000
            -75 callsubr
            return
          </CharString>
          <CharString index="196">
            88 callgsubr
            14 hhcurveto
            599 hlineto
            14 77 callsubr
            endchar
          </CharString>
          <CharString index="197">
            736 -58 callsubr
            return
          </CharString>
          <CharString index="198">
            60 callsubr
            rlineto
            return
          </CharString>
          <CharString index="199">
            hstemhm
            143 89 10 89 return
          </CharString>
          <CharString index="200">
            -15 -28 -28 hvcurveto
            return
          </CharString>
          <CharString index="201">
            92 callgsubr
            16 6 13 11 5 hvcurveto
            144 300 rlineto
            return
          </CharString>
          <CharString index="202">
            737 341 rmoveto
            194 42 -101 159 -172 hhcurveto
            -262 hlineto
            return
          </CharString>
          <CharString index="203">
            63 350 59 hstemhm
            297 71 -52 71 return
          </CharString>
          <CharString index="204">
            361 -11 54 callgsubr
            return
          </CharString>
          <CharString index="205">
            500 507 -21 return
          </CharString>
          <CharString index="206">
            -18 -39 -8 hvcurveto
            -8 -36 -37 -36 -46 -8 -58 -4 rcurveline
            -8 -37 rlineto
            return
          </CharString>
          <CharString index="207">
            hstemhm
            28 610 return
          </CharString>
          <CharString index="208">
            -200 -84 callsubr
            hintmask 10000000
            -54 callgsubr
          </CharString>
          <CharString index="209">
            rlineto
            153 hlineto
            140 78 -121 -176 -38 hvcurveto
            endchar
          </CharString>
          <CharString index="210">
            12 -25 hhcurveto
            hintmask 00010000
            -47 -58 -41 -78 return
          </CharString>
          <CharString index="211">
            239 -30 callgsubr
            return
          </CharString>
          <CharString index="212">
            542 131 callsubr
            return
          </CharString>
          <CharString index="213">
            45 25 -23 -32 15 hvcurveto
            return
          </CharString>
          <CharString index="214">
            96 86 225 81 return
          </CharString>
          <CharString index="215">
            -167 rlineto
            endchar
          </CharString>
          <CharString index="216">
            rmoveto
            113 callsubr
            return
          </CharString>
          <CharString index="217">
            667 -212 70 163 -35 callsubr
            -20 return
          </CharString>
          <CharString index="218">
            78 198 78 return
          </CharString>
          <CharString index="219">
            83 278 83 hstemhm
            97 83 -65 83 -24 83 -66 83 return
          </CharString>
          <CharString index="220">
            77 callgsubr
            -11 -53 78 callsubr
            return
          </CharString>
          <CharString index="221">
            -82 71 hhcurveto
            71 84 85 116 return
          </CharString>
          <CharString index="222">
            -21 111 67 hstem
            return
          </CharString>
          <CharString index="223">
            hstemhm
            81 78 0 78 return
          </CharString>
          <CharString index="224">
            -21 122 -20 return
          </CharString>
          <CharString index="225">
            rmoveto
            8 36 rlineto
            -71 hlineto
            54 255 rlineto
            -65 hlineto
            return
          </CharString>
          <CharString index="226">
            hstemhm
            96 86 53 -13 callsubr
            64 81 128 81 return
          </CharString>
          <CharString index="227">
            -57 41 65 -6 29 hhcurveto
            88 75 59 63 14 hvcurveto
            return
          </CharString>
          <CharString index="228">
            12 -25 hhcurveto
            hintmask 10000000
            -47 return
          </CharString>
          <CharString index="229">
            -56 -28 -50 -48 -8 -51 return
          </CharString>
          <CharString index="230">
            73 87 callsubr
            return
          </CharString>
          <CharString index="231">
            rlineto
            144 hlineto
            return
          </CharString>
          <CharString index="232">
            -56 61 281 61 0 61 281 61 hstemhm
            return
          </CharString>
          <CharString index="233">
            0 64 -64 71 117 71 355 64 hstemhm
            return
          </CharString>
          <CharString index="234">
            116 callsubr
            -8 75 return
          </CharString>
          <CharString index="235">
            507 -21 125 83 hstemhm
            return
          </CharString>
          <CharString index="236">
            hhcurveto
            0 -4 0 -3 -1 vhcurveto
            return
          </CharString>
          <CharString index="237">
            500 522 67 return
          </CharString>
          <CharString index="238">
            0 137 callsubr
            return
          </CharString>
          <CharString index="239">
            hmoveto
            15 71 rlineto
            return
          </CharString>
          <CharString index="240">
            43 -25 43 -8 43 -25 43 hstemhm
            hintmask 10010000
            return
          </CharString>
          <CharString index="241">
            -16 callsubr
            hintmask 00001000
            101 callgsubr
            return
          </CharString>
          <CharString index="242">
            -20 100 callsubr
            -393 -13 callsubr
            return
          </CharString>
          <CharString index="243">
            hstemhm
            75 callgsubr
            return
          </CharString>
          <CharString index="244">
            64 630 -20 return
          </CharString>
        <CharString name=".notdef">
          280 endchar
        </CharString>
        <CharString name="A">
          -60 callgsubr
          hstem
          28 610 vstem
          -106 callgsubr
          endchar
        </CharString>
        <CharString name="AE">
          74 callgsubr
          hstem
          553 88 vstem
          -67 callgsubr
          endchar
        </CharString>
        <CharString name="AE.dup">
          74 callgsubr
          hstem
          553 88 vstem
          -67 callgsubr
          endchar
        </CharString>
        <CharString name="AEacute">
          74 callgsubr
          123 callsubr
          553 88 hintmask 11110010
          -67 callgsubr
          hintmask 00001100
          253 238 -94 callgsubr
        </CharString>
        <CharString name="Aacute">
          -60 callgsubr
          93 87 callsubr
          28 610 hintmask 11100100
          -106 callgsubr
          hintmask 00011000
          241 351 -94 callgsubr
        </CharString>
        <CharString name="Abreve">
          -60 callgsubr
          72 67 111 -20 100 callsubr
          hintmask 11100100
          -106 callgsubr
          hintmask 00011000
          -8 callgsubr
          endchar
        </CharString>
        <CharString name="Abreveacute">
          -60 callgsubr
          72 67 268 -20 100 callsubr
          hintmask 11100100
          -106 callgsubr
          hintmask 00011000
          -8 callgsubr
          9 157 -94 callgsubr
        </CharString>
        <CharString name="Abrevedotbelow">
          -60 callgsubr
          72 67 111 135 callsubr
          hintmask 11111100
          -106 callgsubr
          -8 callgsubr
          hintmask 00000001
          -364 -1124 -84 callsubr
          hintmask 00000010
          -54 callgsubr
        </CharString>
        <CharString name="Abrevegrave">
          -60 callgsubr
          72 67 111 -20 100 callsubr
          hintmask 11100100
          -106 callgsubr
          hintmask 00011000
          -8 callgsubr
          -17 35 -15 callsubr
        </CharString>
        <CharString name="Abrevehookabove">
          -60 callgsubr
          72 67 146 67 128 -20 100 callsubr
          hintmask 11100010
          -106 callgsubr
          hintmask 00011100
          231 407 -47 callgsubr
        </CharString>
        <CharString name="Abrevetilde">
          -60 callgsubr
          72 67 166 61 -3 61 100 callsubr
          hintmask 11100010
          -106 callgsubr
          hintmask 00010100
          -8 callgsubr
          35 174 -10 callgsubr
        </CharString>
        <CharString name="Acaron">
          -60 callgsubr
          83 -21 134 -20 100 callsubr
          hintmask 11100100
          -106 callgsubr
          hintmask 00011000
          207 353 -85 callsubr
        </CharString>
        <CharString name="Acircumflex">
          -60 callgsubr
          83 -21 134 -20 100 callsubr
          hintmask 11100100
          -106 callgsubr
          hintmask 00011000
          61 callgsubr
          endchar
        </CharString>
        <CharString name="Acircumflexacute">
          -60 callgsubr
          83 -21 291 -20 100 callsubr
          hintmask 11100100
          -106 callgsubr
          hintmask 00011000
          61 callgsubr
          108 291 -94 callgsubr
        </CharString>
        <CharString name="Acircumflexdotbelow">
          -60 callgsubr
          83 -21 134 135 callsubr
          hintmask 11111100
          -106 callgsubr
          61 callgsubr
          hintmask 00000001
          -252 -936 -84 callsubr
          hintmask 00000010
          -54 callgsubr
        </CharString>
        <CharString name="Acircumflexgrave">
          -60 callgsubr
          83 -21 134 -20 100 callsubr
          hintmask 11100100
          -106 callgsubr
          hintmask 00011000
          61 callgsubr
          82 169 -15 callsubr
        </CharString>
        <CharString name="Acircumflexhookabove">
          -60 callgsubr
          83 -21 364 -20 100 callsubr
          hintmask 11100100
          -106 callgsubr
          hintmask 00011000
          61 callgsubr
          158 286 -96 callgsubr
        </CharString>
        <CharString name="Acircumflextilde">
          -60 callgsubr
          83 -21 189 61 -3 61 100 callsubr
          hintmask 11100010
          -106 callgsubr
          hintmask 00010100
          61 callgsubr
          136 116 callgsubr
          hintmask 00001000
          -34 -8 -18 -86 callgsubr
          hintmask 00000100
          -34 callgsubr
          hintmask 00001000
          -55 callsubr
          hintmask 00000100
          34 9 112 callgsubr
          16 17 -12 25 hhcurveto
          hintmask 00000100
          -44 callsubr
        </CharString>
        <CharString name="Adblgrave">
          -60 callgsubr
          93 93 callgsubr
          100 callsubr
          hintmask 11100100
          -106 callgsubr
          hintmask 00011000
          139 229 -89 callsubr
        </CharString>
        <CharString name="Adieresis">
          -60 callgsubr
          62 80 100 callsubr
          -276 -14 callgsubr
          77 -14 callgsubr
          hintmask 1110100000000000
          -106 callgsubr
          hintmask 0001001000000000
          -25 219 -58 callsubr
          hintmask 0001010010000000
          -66 callgsubr
          hintmask 0001000100000000
          -17 callsubr
          endchar
        </CharString>
        <CharString name="Adotbelow">
          667 21 -21 204 56 434 135 callsubr
          hintmask 11110000
          -106 callgsubr
          hintmask 00000100
          -133 -717 -84 callsubr
          hintmask 00001000
          -54 callgsubr
        </CharString>
        <CharString name="Agrave">
          -60 callgsubr
          93 87 callsubr
          28 610 hintmask 11100100
          -106 callgsubr
          hintmask 00011000
          119 229 -68 callgsubr
        </CharString>
        <CharString name="Ahookabove">
          -60 callgsubr
          83 -21 215 -20 100 callsubr
          hintmask 11100100
          -106 callgsubr
          hintmask 00011000
          148 356 -101 callgsubr
        </CharString>
        <CharString name="Alpha">
          -60 callgsubr
          hstem
          28 610 vstem
          -106 callgsubr
          endchar
        </CharString>
        <CharString name="Amacron">
          -60 callgsubr
          82 64 100 callsubr
          hintmask 11101000
          -106 callgsubr
          hintmask 00010000
          208 239 -17 callgsubr
        </CharString>
        <CharString name="Aogonek">
          110 callsubr
          hstem
          437 63 46 63 vstem
          616 -67 callsubr
          49 34 52 26 rrcurveto
          29 hlineto
          -97 callsubr
          291 hlineto
          33 -204 122 callsubr
          rlinecurve
          -71 callgsubr
          -113 447 rmoveto
          -248 hlineto
          82 143 -60 -105 82 143 33 59 49 85 15 37 rrcurveto
          1 hlineto
          -1 -14 2 -25 9 -66 rrcurveto
          endchar
        </CharString>
        <CharString name="Aogonekacute">
          110 callsubr
          93 87 callsubr
          437 63 46 63 hintmask 11110011
          616 -67 callsubr
          49 34 52 26 rrcurveto
          29 hlineto
          -97 callsubr
          291 hlineto
          33 -204 122 callsubr
          rlinecurve
          -71 callgsubr
          -113 447 rmoveto
          -248 hlineto
          82 143 -60 -105 82 143 33 59 49 85 15 37 rrcurveto
          1 hlineto
          -1 -14 2 -25 9 -66 rrcurveto
          hintmask 00001100
          241 351 -94 callgsubr
        </CharString>
        <CharString name="Aring">
          -64 callsubr
          47 74 47 100 callsubr
          -125 61 hintmask 11101000
          638 hmoveto
          -97 callsubr
          hintmask 11000100
          291 hlineto
          33 -204 rlineto
          hintmask 11001000
          -43 260 rmoveto
          -248 hlineto
          82 143 -60 -105 82 143 33 59 49 85 15 37 rrcurveto
          1 hlineto
          -1 -14 2 -25 9 -66 rrcurveto
          hintmask 00110000
          81 261 -91 callgsubr
          -54 -40 -43 -10 13 callsubr
          endchar
        </CharString>
        <CharString name="Aringacute">
          -64 callsubr
          47 74 47 157 -20 100 callsubr
          -125 61 hintmask 11100100
          638 hmoveto
          -97 callsubr
          hintmask 11000010
          291 hlineto
          33 -204 rlineto
          hintmask 11000100
          -43 260 rmoveto
          -248 hlineto
          82 143 -60 -105 82 143 33 59 49 85 15 37 rrcurveto
          1 hlineto
          -1 -14 2 -25 9 -66 rrcurveto
          hintmask 00111000
          81 261 -91 callgsubr
          -54 -40 -43 -10 13 callsubr
          83 242 7 callgsubr
        </CharString>
        <CharString name="Atilde">
          -60 callgsubr
          62 61 -3 61 100 callsubr
          hintmask 11100100
          -106 callgsubr
          hintmask 00001000
          215 338 -11 callsubr
        </CharString>
        <CharString name="B">
          -49 callgsubr
        </CharString>
        <CharString name="Beta">
          -49 callgsubr
        </CharString>
        <CharString name="C">
          86 callgsubr
          hstem
          -98 callsubr
          endchar
        </CharString>
        <CharString name="Cacute">
          86 callgsubr
          61 87 callsubr
          hintmask 11000000
          -98 callsubr
          hintmask 00110000
          129 823 -94 callgsubr
        </CharString>
        <CharString name="Ccaron">
          86 callgsubr
          51 -21 134 -20 hstemhm
          hintmask 11000000
          -98 callsubr
          hintmask 00110000
          95 825 -85 callsubr
        </CharString>
        <CharString name="Ccedilla">
          639 -22 64 610 64 hstem
          141 89 vstem
          114 callgsubr
          -151 -57 152 153 33 hvcurveto
          163 34 129 142 139 hhcurveto
          102 callgsubr
          -192 -172 -173 -196 -41 hvcurveto
          -193 -41 95 -176 195 hhcurveto
          83 42 13 43 80 hvcurveto
          -207 -80 -29 callsubr
          -109 59 callgsubr
        </CharString>
        <CharString name="Ccircumflex">
          86 callgsubr
          51 -21 134 -20 hstemhm
          hintmask 11000000
          -98 callsubr
          hintmask 00110000
          66 691 -79 callsubr
        </CharString>
        <CharString name="Cdotaccent">
          86 callgsubr
          30 89 hstemhm
          462 -13 callsubr
          hintmask 11000000
          -98 callsubr
          hintmask 00101000
          -46 691 -84 callsubr
          hintmask 00110000
          -54 callgsubr
        </CharString>
        <CharString name="Chi">
          -6 callsubr
        </CharString>
        <CharString name="D">
          128 callgsubr
          hstem
          651 86 vstem
          -73 callgsubr
          endchar
        </CharString>
        <CharString name="Dcaron">
          128 callgsubr
          63 -21 134 -20 hstemhm
          651 86 hintmask 11001000
          -73 callgsubr
          hintmask 00110000
          -51 529 -85 callsubr
        </CharString>
        <CharString name="Dcroat">
          -46 callsubr
        </CharString>
        <CharString name="Ddotbelow">
          128 callgsubr
          hstemhm
          171 -13 callsubr
          372 86 hintmask 11001000
          -73 callgsubr
          hintmask 00010000
          -391 -541 -84 callsubr
          hintmask 00100000
          -54 callgsubr
        </CharString>
        <CharString name="Delta">
          833 0 83 611 -20 hstem
          790 hmoveto
          -181 694 rlineto
          -90 hlineto
          -477 -39 callgsubr
          628 83 rmoveto
          -494 hlineto
          207 305 82 120 52 77 21 40 rlinecurve
          1 -13 3 -21 29 -117 rrcurveto
          endchar
        </CharString>
        <CharString name="Dlinebelow">
          722 -187 64 123 56 582 56 hstemhm
          651 86 hintmask 01110000
          -73 callgsubr
          hintmask 10000000
          -251 -528 -64 callgsubr
        </CharString>
        <CharString name="E">
          -57 callsubr
          hstem
          -105 callsubr
          endchar
        </CharString>
        <CharString name="Eacute">
          -57 callsubr
          76 -21 122 -20 -100 callgsubr
          hintmask 00011000
          580 868 -94 callgsubr
        </CharString>
        <CharString name="Ebreve">
          -57 callsubr
          55 67 111 -20 -100 callgsubr
          hintmask 00011000
          570 924 -95 callsubr
          endchar
        </CharString>
        <CharString name="Ecaron">
          43 callgsubr
          134 -20 -100 callgsubr
          hintmask 00011000
          546 870 -85 callsubr
        </CharString>
        <CharString name="Ecircumflex">
          43 callgsubr
          134 -27 callsubr
          endchar
        </CharString>
        <CharString name="Ecircumflexacute">
          43 callgsubr
          291 -27 callsubr
          108 291 -94 callgsubr
        </CharString>
        <CharString name="Ecircumflexdotbelow">
          43 callgsubr
          134 -20 hstemhm
          211 -13 callsubr
          hintmask 11111000
          -105 callsubr
          10 callgsubr
          hintmask 00000010
          -252 -936 -84 callsubr
          hintmask 00000100
          -54 callgsubr
        </CharString>
        <CharString name="Ecircumflexgrave">
          43 callgsubr
          134 -27 callsubr
          82 169 -15 callsubr
        </CharString>
        <CharString name="Ecircumflexhookabove">
          43 callgsubr
          364 -27 callsubr
          158 286 -96 callgsubr
        </CharString>
        <CharString name="Ecircumflextilde">
          43 callgsubr
          189 61 -3 61 -100 callgsubr
          hintmask 00010100
          10 callgsubr
          136 116 callgsubr
          hintmask 00001000
          -34 -8 -18 -86 callgsubr
          hintmask 00000100
          -34 callgsubr
          hintmask 00001000
          -55 callsubr
          hintmask 00000100
          34 9 112 callgsubr
          16 17 -12 25 hhcurveto
          hintmask 00000100
          -44 callsubr
        </CharString>
        <CharString name="Edblgrave">
          -57 callsubr
          76 93 callgsubr
          -100 callgsubr
          hintmask 00011000
          505 746 -89 callsubr
        </CharString>
        <CharString name="Edieresis">
          -57 callsubr
          45 80 hstemhm
          328 -14 callgsubr
          77 -14 callgsubr
          hintmask 11100000
          -105 callsubr
          hintmask 00010100
          314 90 callsubr
          hintmask 00011001
          -66 callgsubr
          hintmask 00010010
          -17 callsubr
          endchar
        </CharString>
        <CharString name="Edotaccent">
          -57 callsubr
          45 89 hstemhm
          410 -13 callsubr
          hintmask 11100000
          -105 callsubr
          hintmask 00010100
          405 736 -84 callsubr
          hintmask 00011000
          -54 callgsubr
        </CharString>
        <CharString name="Edotbelow">
          -57 callsubr
          hstemhm
          211 -13 callsubr
          hintmask 11100000
          -105 callsubr
          hintmask 00001000
          206 -200 rmoveto
          96 callgsubr
          endchar
        </CharString>
        <CharString name="Egrave">
          -57 callsubr
          76 -21 122 -20 -100 callgsubr
          hintmask 00011000
          458 746 -68 callgsubr
        </CharString>
        <CharString name="Ehookabove">
          43 callgsubr
          215 -20 -100 callgsubr
          hintmask 00011000
          487 873 -101 callgsubr
        </CharString>
        <CharString name="Emacron">
          -57 callsubr
          65 64 -100 callgsubr
          hintmask 00010000
          547 756 -17 callgsubr
        </CharString>
        <CharString name="Eng">
          708 -22 78 582 78 132 callgsubr
          268 88 vstem
          687 347 rmoveto
          182 38 -25 187 -158 hhcurveto
          -82 -80 -34 -55 -64 hvcurveto
          15 67 -62 callgsubr
          89 hlineto
          99 467 rlineto
          97 43 99 74 102 hhcurveto
          118 -16 -153 -138 -29 hvcurveto
          -138 -30 -49 -153 -118 hhcurveto
          -17 -78 rlineto
          158 105 187 182 39 hvcurveto
          endchar
        </CharString>
        <CharString name="Eogonek">
          597 -212 70 142 70 259 61 236 65 hstemhm
          241 89 -77 63 hintmask 11110100
          514 -67 callsubr
          51 34 52 26 rrcurveto
          45 hlineto
          15 71 rlineto
          -126 hlineto
          -12 -12 -1 -12 hhcurveto
          -209 hlineto
          55 259 rlineto
          330 hlineto
          13 61 rlineto
          -330 hlineto
          50 237 rlineto
          138 hlineto
          12 12 -1 12 hhcurveto
          183 hlineto
          14 65 rlineto
          hintmask 11011000
          -446 hlineto
          -147 -691 rlineto
          350 hlineto
          -49 -29 -57 -47 -8 -51 rrcurveto
          -71 callgsubr
          endchar
        </CharString>
        <CharString name="Eogonekacute">
          597 -212 70 142 70 259 61 236 65 76 87 callsubr
          241 89 -77 63 hintmask 11110001
          514 -67 callsubr
          51 34 52 26 rrcurveto
          45 hlineto
          15 71 rlineto
          -126 hlineto
          -12 -12 -1 -12 hhcurveto
          -209 hlineto
          55 259 rlineto
          330 hlineto
          13 61 rlineto
          -330 hlineto
          50 237 rlineto
          138 hlineto
          12 12 -1 12 hhcurveto
          183 hlineto
          14 65 rlineto
          hintmask 11010010
          -446 hlineto
          -147 -691 rlineto
          350 hlineto
          -49 -29 -57 -47 -8 -51 rrcurveto
          -71 callgsubr
          hintmask 00001100
          160 1055 -94 callgsubr
        </CharString>
        <CharString name="Epsilon">
          -57 callsubr
          hstem
          -105 callsubr
          endchar
        </CharString>
        <CharString name="Ereversed">
          -57 callsubr
          hstem
          554 hmoveto
          147 691 rlineto
          -446 hlineto
          -14 -65 rlineto
          183 hlineto
          12 12 1 12 hhcurveto
          138 hlineto
          -50 -237 rlineto
          -330 hlineto
          -13 -61 rlineto
          330 hlineto
          -55 -259 rlineto
          -209 hlineto
          -12 -12 1 -12 hhcurveto
          -126 hlineto
          -15 -71 rlineto
          endchar
        </CharString>
        <CharString name="Eta">
          24 callgsubr
          hstem
          75 callgsubr
          vstem
          -73 callsubr
          endchar
        </CharString>
        <CharString name="Eth">
          -46 callsubr
        </CharString>
        <CharString name="Etilde">
          -57 callsubr
          45 61 -3 61 -100 callgsubr
          hintmask 00001000
          554 855 -11 callsubr
        </CharString>
        <CharString name="Euro">
          599 -22 56 -56 64 213 56 72 56 213 64 hstemhm
          197 88 hintmask 01111100
          556 34 rmoveto
          9 70 rlineto
          -50 -58 -32 -12 -69 hhcurveto
          -56 -37 41 48 -20 hvcurveto
          -15 39 -6 42 1 43 rrcurveto
          244 hlineto
          22 56 rlineto
          -261 hlineto
          2 12 2 12 3 12 2 12 3 12 4 12 rrcurveto
          273 hlineto
          22 56 rlineto
          -276 hlineto
          17 44 24 42 31 38 rrcurveto
          49 40 54 40 57 hhcurveto
          53 33 -15 -38 29 hvcurveto
          32 83 rlineto
          25 -43 -36 9 -55 hhcurveto
          -78 -78 -45 -63 -60 hvcurveto
          -48 -50 -36 -58 -24 -61 rrcurveto
          -71 hlineto
          -21 -56 rlineto
          73 hlineto
          -4 -12 -3 -12 -2 -12 -3 -12 -2 -12 -2 -12 rrcurveto
          -63 hlineto
          -22 -56 rlineto
          81 hlineto
          -2 -61 11 -58 27 -50 rrcurveto
          -63 33 59 -45 78 hhcurveto
          hintmask 10000000
          70 32 11 45 62 hvcurveto
          endchar
        </CharString>
        <CharString name="F">
          569 21 -21 315 61 250 68 hstem
          94 89 vstem
          659 626 rmoveto
          14 65 rlineto
          -432 hlineto
          -147 -691 rlineto
          89 hlineto
          67 315 rlineto
          302 hlineto
          13 61 rlineto
          -302 hlineto
          53 251 rlineto
          131 hlineto
          12 12 -1 12 hhcurveto
          endchar
        </CharString>
        <CharString name="G">
          38 callgsubr
          hstem
          -102 callgsubr
          endchar
        </CharString>
        <CharString name="Gacute">
          38 callgsubr
          61 87 callsubr
          hintmask 11100000
          -102 callgsubr
          hintmask 00011000
          102 830 -94 callgsubr
        </CharString>
        <CharString name="Gamma">
          542 21 -21 626 65 hstem
          94 89 vstem
          632 626 rmoveto
          14 65 rlineto
          -405 hlineto
          -147 -691 rlineto
          89 hlineto
          133 627 rlineto
          118 hlineto
          12 12 -1 12 hhcurveto
          endchar
        </CharString>
        <CharString name="Gbreve">
          38 callgsubr
          40 67 111 -20 hstemhm
          hintmask 11100000
          -102 callgsubr
          hintmask 00011000
          92 886 -95 callsubr
          endchar
        </CharString>
        <CharString name="Gcaron">
          38 callgsubr
          51 -21 134 -20 hstemhm
          hintmask 11100000
          -102 callgsubr
          hintmask 00011000
          68 832 -85 callsubr
        </CharString>
        <CharString name="Gcedilla">
          667 -33 callgsubr
          68 42 callgsubr
          hstem
          -102 callgsubr
          -269 -191 -98 callgsubr
        </CharString>
        <CharString name="Gcircumflex">
          38 callgsubr
          51 -21 134 -20 hstemhm
          hintmask 11100000
          -102 callgsubr
          hintmask 00011000
          39 698 -79 callsubr
        </CharString>
        <CharString name="Gcommaaccent">
          667 -33 callgsubr
          68 42 callgsubr
          hstemhm
          hintmask 00111000
          -102 callgsubr
          hintmask 11000000
          -269 -191 -98 callgsubr
        </CharString>
        <CharString name="Gdotaccent">
          38 callgsubr
          30 89 hstemhm
          445 -13 callsubr
          hintmask 11100000
          -102 callgsubr
          hintmask 00010100
          -72 698 -84 callsubr
          hintmask 00011000
          -54 callgsubr
        </CharString>
        <CharString name="H">
          24 callgsubr
          hstem
          75 callgsubr
          vstem
          -73 callsubr
          endchar
        </CharString>
        <CharString name="H_uni0303">
          24 callgsubr
          62 61 -3 61 136 callsubr
          hintmask 1110011110000000
          -73 callsubr
          hintmask 0000100000000000
          179 855 -59 callgsubr
        </CharString>
        <CharString name="Hbar">
          708 21 -21 330 61 98 64 141 -20 hstemhm
          94 89 15 89 -75 89 -59 89 193 89 15 89 -75 89 -59 89 hintmask 0010000000100000
          769 489 rmoveto
          14 64 rlineto
          -52 hlineto
          hintmask 0001000000010000
          30 141 -20 callsubr
          hintmask 0010001000100000
          -30 -141 rlineto
          -341 hlineto
          hintmask 0001000100000000
          30 141 -20 callsubr
          hintmask 0010001000000000
          -30 -141 rlineto
          -52 117 callgsubr
          hintmask 1110110011000000
          52 hlineto
          -104 -489 rlineto
          89 hlineto
          70 330 rlineto
          341 hlineto
          -70 -330 rlineto
          89 hlineto
          104 489 rlineto
          -110 -98 rmoveto
          -341 hlineto
          21 98 rlineto
          341 hlineto
          endchar
        </CharString>
        <CharString name="Hbrevebelow">
          708 123 callgsubr
          107 -21 330 61 303 -20 136 callsubr
          hintmask 0011111110000000
          -73 callsubr
          hintmask 1100000000000000
          -15 -66 -45 callsubr
        </CharString>
        <CharString name="Hcircumflex">
          24 callgsubr
          83 -21 134 -20 136 callsubr
          hintmask 1110011110000000
          -73 callsubr
          hintmask 0001100000000000
          142 -9 callgsubr
        </CharString>
        <CharString name="Hdieresis">
          24 callgsubr
          62 80 hstemhm
          94 89 59 89 52 -14 callgsubr
          44 89 -56 -14 callgsubr
          18 89 hintmask 1110110010010000
          -73 callsubr
          hintmask 0001000100000000
          -61 90 callsubr
          hintmask 0001001000100000
          -66 callgsubr
          hintmask 0001000001000000
          -17 callsubr
          endchar
        </CharString>
        <CharString name="Hdotbelow">
          24 callgsubr
          hstemhm
          94 89 59 89 -65 -13 callsubr
          150 89 59 89 hintmask 0110010010000000
          613 35 callgsubr
          -65 -303 rlineto
          -341 hlineto
          hintmask 1111100100000000
          65 303 -62 callgsubr
          89 hlineto
          70 330 rlineto
          341 hlineto
          -70 -330 rlineto
          hintmask 0000001000000000
          -169 100 callgsubr
        </CharString>
        <CharString name="I">
          29 callsubr
          132 callgsubr
          vstem
          -75 callsubr
          endchar
        </CharString>
        <CharString name="I_J">
          722 -22 61 -39 20 674 -20 hstemhm
          94 89 59 89 253 86 30 86 hintmask 01111110
          -75 callsubr
          576 149 rmoveto
          116 545 rlineto
          -86 hlineto
          -116 -542 rlineto
          hintmask 10000000
          -17 -3 -21 -96 -118 hhcurveto
          -42 -48 18 38 -26 hvcurveto
          hintmask 01000000
          -30 -75 rlineto
          hintmask 10000100
          -12 22 56 -30 84 hhcurveto
          103 85 58 113 24 hvcurveto
          endchar
        </CharString>
        <CharString name="Iacute">
          29 callsubr
          93 87 callsubr
          94 89 59 89 hintmask 11001100
          -75 callsubr
          hintmask 00110000
          470 868 -94 callgsubr
        </CharString>
        <CharString name="Ibreve">
          29 callsubr
          72 67 111 -20 hstemhm
          94 89 59 89 hintmask 11001100
          -75 callsubr
          hintmask 00110000
          410 924 -95 callsubr
          endchar
        </CharString>
        <CharString name="Icaron">
          29 callsubr
          83 -21 134 -20 hstemhm
          94 89 59 89 hintmask 11001100
          -75 callsubr
          hintmask 00110000
          386 870 -85 callsubr
        </CharString>
        <CharString name="Icircumflex">
          29 callsubr
          83 -21 134 -20 hstemhm
          94 89 59 89 hintmask 11001100
          -75 callsubr
          hintmask 00110000
          357 -9 callgsubr
        </CharString>
        <CharString name="Idblgrave">
          29 callsubr
          93 93 callgsubr
          hstemhm
          94 89 59 89 hintmask 11001100
          -75 callsubr
          hintmask 00110000
          345 746 -89 callsubr
        </CharString>
        <CharString name="Idieresis">
          278 115 callgsubr
          94 89 -15 -14 callgsubr
          -23 89 11 -14 callgsubr
          hintmask 1101001000000000
          -75 callsubr
          hintmask 0010010000000000
          154 90 callsubr
          hintmask 0010100010000000
          -66 callgsubr
          hintmask 0010000100000000
          -17 callsubr
          endchar
        </CharString>
        <CharString name="Idieresisacute">
          29 callsubr
          62 80 123 callsubr
          94 89 -15 -14 callgsubr
          -23 89 11 -14 callgsubr
          hintmask 1100010010000000
          -75 callsubr
          hintmask 0010000100000000
          154 90 callsubr
          hintmask 0010001000100000
          -66 callgsubr
          hintmask 0011100001000000
          -17 callsubr
          198 254 -94 callgsubr
        </CharString>
        <CharString name="Idotaccent">
          29 callsubr
          62 89 hstemhm
          94 89 59 89 -81 89 -70 88 callsubr
          hintmask 00100010
          245 736 -84 callsubr
          hintmask 00100100
          -54 callgsubr
        </CharString>
        <CharString name="Idotbelow">
          29 callsubr
          hstemhm
          51 -13 callsubr
          -65 89 59 89 hintmask 11001100
          -75 callsubr
          hintmask 00010000
          46 -200 -84 callsubr
          hintmask 00100000
          -54 callgsubr
        </CharString>
        <CharString name="Igrave">
          29 callsubr
          93 87 callsubr
          94 89 59 89 hintmask 11001100
          -75 callsubr
          hintmask 00110000
          247 746 -68 callgsubr
        </CharString>
        <CharString name="Ihookabove">
          29 callsubr
          83 -21 215 -20 hstemhm
          94 89 59 89 hintmask 11001100
          -75 callsubr
          hintmask 00110100
          327 873 -101 callgsubr
        </CharString>
        <CharString name="Imacron">
          31 callgsubr
          387 756 -17 callgsubr
        </CharString>
        <CharString name="Imacron.alt">
          31 callgsubr
          304 756 82 callsubr
        </CharString>
        <CharString name="Iogonek">
          278 -212 70 163 -30 callsubr
          hstemhm
          5 89 0 89 59 89 hintmask 11101100
          189 -43 callgsubr
          -38 callsubr
          rcurveline
          -58 callgsubr
          25 hlineto
          hintmask 10010000
          122 callsubr
          rrcurveto
          -71 callgsubr
          endchar
        </CharString>
        <CharString name="Iogonekacute">
          278 -212 70 163 -30 callsubr
          93 87 callsubr
          5 89 0 89 59 89 hintmask 11100011
          189 -43 callgsubr
          -38 callsubr
          rcurveline
          -58 callgsubr
          25 hlineto
          hintmask 10000100
          122 callsubr
          rrcurveto
          -71 callgsubr
          hintmask 00011000
          375 1055 -94 callgsubr
        </CharString>
        <CharString name="Iota">
          29 callsubr
          132 callgsubr
          vstem
          -75 callsubr
          endchar
        </CharString>
        <CharString name="Itilde">
          29 callsubr
          62 70 callgsubr
          94 89 59 89 hintmask 11001100
          -75 callsubr
          hintmask 00010000
          394 24 callsubr
          hintmask 00010100
          34 9 -88 callsubr
          hintmask 00100000
          -13 16 62 callsubr
          19 hvcurveto
          endchar
        </CharString>
        <CharString name="J">
          129 callgsubr
          hstem
          334 86 30 86 vstem
          -55 callgsubr
          endchar
        </CharString>
        <CharString name="J_uni030C.cap">
          472.22223 -22 61 489 -21 112 75 hstem
          334 86 30 86 vstem
          -55 callgsubr
          211 471 -98 callgsubr
        </CharString>
        <CharString name="Jacute">
          129 callgsubr
          93 87 callsubr
          334 86 30 86 hintmask 11001100
          -55 callgsubr
          hintmask 00110000
          352 719 -94 callgsubr
        </CharString>
        <CharString name="Jcircumflex">
          129 callgsubr
          83 -21 134 -20 hstemhm
          334 86 30 86 hintmask 11001100
          -55 callgsubr
          hintmask 00110000
          237 587 -79 callsubr
        </CharString>
        <CharString name="K">
          694 -30 callgsubr
          hstem
          96 85 63 85 vstem
          -51 callgsubr
          endchar
        </CharString>
        <CharString name="Kappa">
          694 -30 callgsubr
          hstem
          96 85 63 85 vstem
          -51 callgsubr
          endchar
        </CharString>
        <CharString name="Kcedilla">
          694 52 callgsubr
          hstem
          96 85 63 85 vstem
          -51 callgsubr
          -208 -153 -98 callgsubr
        </CharString>
        <CharString name="Kcommaaccent">
          694 42 callsubr
          96 85 63 85 hintmask 00111100
          -51 callgsubr
          hintmask 11000000
          -208 -153 -98 callgsubr
        </CharString>
        <CharString name="L">
          105 callsubr
          hstem
          242 89 vstem
          -68 callsubr
          endchar
        </CharString>
        <CharString name="L_uni0303">
          105 callsubr
          62 70 callgsubr
          242 89 hintmask 11001000
          -68 callsubr
          hintmask 00010000
          394 24 callsubr
          hintmask 00011000
          34 9 -88 callsubr
          hintmask 00100000
          -13 16 62 callsubr
          19 hvcurveto
          endchar
        </CharString>
        <CharString name="Lacute">
          105 callsubr
          93 87 callsubr
          242 89 hintmask 11001000
          -68 callsubr
          hintmask 00110000
          470 868 -94 callgsubr
        </CharString>
        <CharString name="Lambda">
          611 -30 callgsubr
          hstem
          28 554 vstem
          582 hmoveto
          -85 694 rlineto
          -88 hlineto
          -381 -39 callgsubr
          74 hlineto
          161 296 3 6 141 257 19 62 rlinecurve
          1 hlineto
          -2 -33 5 -70 5 -54 17 -160 rcurveline
          36 -304 rlineto
          endchar
        </CharString>
        <CharString name="Lcaron">
          542 0 64 464 -21 112 75 hstem
          242 89 vstem
          -68 callsubr
          351 620 -98 callgsubr
        </CharString>
        <CharString name="Lcedilla">
          542 -33 callgsubr
          79 137 callsubr
          hstem
          242 89 vstem
          -68 callsubr
          181 -153 -98 callgsubr
        </CharString>
        <CharString name="Lcommaaccent">
          542 -33 callgsubr
          79 137 callsubr
          hstemhm
          242 89 hintmask 00111000
          -68 callsubr
          hintmask 11000000
          181 -153 -98 callgsubr
        </CharString>
        <CharString name="Ldot">
          542 0 64 260 89 281 -20 hstemhm
          242 89 102 -13 callsubr
          hintmask 11110100
          -68 callsubr
          428 324 -84 callsubr
          hintmask 01001000
          -54 callgsubr
        </CharString>
        <CharString name="Ldotbelow">
          105 callsubr
          hstemhm
          183 -13 callsubr
          -49 89 hintmask 11001000
          -68 callsubr
          hintmask 00010000
          178 -200 -84 callsubr
          hintmask 00100000
          -54 callgsubr
        </CharString>
        <CharString name="Ldotbelowmacron">
          105 callsubr
          82 64 hstemhm
          183 -13 callsubr
          -49 89 hintmask 11000100
          -68 callsubr
          178 -200 51 callgsubr
          298 956 -17 callgsubr
        </CharString>
        <CharString name="Lslash">
          625 131 callsubr
          hstemhm
          259 89 -18 89 hintmask 10100000
          587 hmoveto
          14 66 -267 -2 rlineto
          -49 hlineto
          63 299 198 140 -29 45 -153 -110 rlineto
          hintmask 01010000
          55 256 -20 callsubr
          hintmask 10100000
          -71 -331 -119 -85 28 -43 75 54 -61 -289 rlineto
          endchar
        </CharString>
        <CharString name="M">
          875 -30 callgsubr
          hstem
          100 78 518 78 vstem
          -70 callsubr
          endchar
        </CharString>
        <CharString name="Mdotbelow">
          875 -30 callgsubr
          hstemhm
          100 78 172 -13 callsubr
          238 78 hintmask 11100100
          -70 callsubr
          hintmask 00001000
          -257 -200 rmoveto
          96 callgsubr
          endchar
        </CharString>
        <CharString name="Mu">
          875 -30 callgsubr
          hstem
          100 78 518 78 vstem
          -70 callsubr
          endchar
        </CharString>
        <CharString name="N">
          105 callgsubr
          hstem
          96 78 507 78 vstem
          -92 callgsubr
          endchar
        </CharString>
        <CharString name="Nacute">
          105 callgsubr
          93 87 callsubr
          96 78 507 78 hintmask 11001100
          -92 callgsubr
          hintmask 00110000
          242 868 -94 callgsubr
        </CharString>
        <CharString name="Ncaron">
          105 callgsubr
          83 -21 134 -20 hstemhm
          96 78 507 78 hintmask 11001100
          -92 callgsubr
          hintmask 00110000
          208 870 -85 callsubr
        </CharString>
        <CharString name="Ncedilla">
          708 52 callgsubr
          hstem
          96 78 507 78 vstem
          -92 callgsubr
          -129 -153 -98 callgsubr
        </CharString>
        <CharString name="Ncommaaccent">
          708 42 callsubr
          96 78 507 78 hintmask 00111100
          -92 callgsubr
          hintmask 11000000
          -129 -153 -98 callgsubr
        </CharString>
        <CharString name="Ndotaccent">
          105 callgsubr
          62 89 hstemhm
          96 78 291 -13 callsubr
          108 78 hintmask 11010010
          -92 callgsubr
          hintmask 00100100
          67 736 -84 callsubr
          hintmask 00101000
          -54 callgsubr
        </CharString>
        <CharString name="Ndotbelow">
          105 callgsubr
          hstemhm
          96 78 92 -13 callsubr
          307 78 hintmask 11100100
          -92 callgsubr
          hintmask 00001000
          -132 -200 rmoveto
          96 callgsubr
          endchar
        </CharString>
        <CharString name="Ntilde">
          105 callgsubr
          62 70 callgsubr
          96 78 507 78 hintmask 11001100
          -92 callgsubr
          hintmask 00010000
          216 855 -93 callsubr
        </CharString>
        <CharString name="Nu">
          105 callgsubr
          hstem
          96 78 507 78 vstem
          -92 callgsubr
          endchar
        </CharString>
        <CharString name="O">
          -23 callsubr
          hstem
          -107 callsubr
          endchar
        </CharString>
        <CharString name="OE">
          -72 callsubr
        </CharString>
        <CharString name="OE.dup">
          -72 callsubr
        </CharString>
        <CharString name="Oacute">
          -23 callsubr
          51 87 callsubr
          hintmask 11000000
          -107 callsubr
          hintmask 00110000
          76 508 -94 callgsubr
        </CharString>
        <CharString name="Obreve">
          -23 callsubr
          30 67 111 -20 hstemhm
          hintmask 11000000
          -107 callsubr
          hintmask 00110000
          66 564 -95 callsubr
          endchar
        </CharString>
        <CharString name="Ocaron">
          -23 callsubr
          41 -21 134 -20 hstemhm
          hintmask 11000000
          -107 callsubr
          hintmask 00110000
          42 510 -85 callsubr
        </CharString>
        <CharString name="Ocircumflex">
          -23 callsubr
          41 -21 134 -20 hstemhm
          hintmask 11000000
          -107 callsubr
          hintmask 00110000
          65 callgsubr
          endchar
        </CharString>
        <CharString name="Ocircumflexacute">
          -23 callsubr
          41 -21 291 -20 hstemhm
          hintmask 11000000
          -107 callsubr
          hintmask 00110000
          65 callgsubr
          108 291 -94 callgsubr
        </CharString>
        <CharString name="Ocircumflexdotbelow">
          -23 callsubr
          41 -21 134 -20 hstemhm
          280 -13 callsubr
          hintmask 11110000
          -107 callsubr
          65 callgsubr
          hintmask 00000100
          -252 -936 -84 callsubr
          hintmask 00001000
          -54 callgsubr
        </CharString>
        <CharString name="Ocircumflexgrave">
          -23 callsubr
          41 -21 134 -20 hstemhm
          hintmask 11000000
          -107 callsubr
          hintmask 00110000
          65 callgsubr
          82 169 -15 callsubr
        </CharString>
        <CharString name="Ocircumflexhookabove">
          -23 callsubr
          41 -21 364 -20 hstemhm
          hintmask 11000000
          -107 callsubr
          hintmask 00110000
          65 callgsubr
          158 286 -96 callgsubr
        </CharString>
        <CharString name="Ocircumflextilde">
          -23 callsubr
          41 -21 189 70 callgsubr
          hintmask 11000000
          -107 callsubr
          hintmask 00101000
          65 callgsubr
          136 116 callgsubr
          hintmask 00010000
          -34 -8 -18 -86 callgsubr
          hintmask 00001000
          13 -16 -17 103 callsubr
          -19 hvcurveto
          61 hlineto
          hintmask 00001000
          34 9 58 callsubr
          134 callsubr
          19 hvcurveto
          endchar
        </CharString>
        <CharString name="Odblgrave">
          -23 callsubr
          51 93 callgsubr
          hstemhm
          hintmask 11000000
          -107 callsubr
          hintmask 00110000
          1 386 -89 callsubr
        </CharString>
        <CharString name="Odieresis">
          -23 callsubr
          20 80 hstemhm
          397 -14 callgsubr
          77 -14 callgsubr
          hintmask 11000000
          -107 callsubr
          hintmask 00101000
          -190 376 -58 callsubr
          hintmask 00110010
          -66 callgsubr
          hintmask 00100100
          -17 callsubr
          endchar
        </CharString>
        <CharString name="Odotbelow">
          -23 callsubr
          hstemhm
          280 -13 callsubr
          hintmask 11000000
          -107 callsubr
          hintmask 00010000
          -298 -560 -84 callsubr
          hintmask 00100000
          -54 callgsubr
        </CharString>
        <CharString name="Ograve">
          -23 callsubr
          51 87 callsubr
          hintmask 11000000
          -107 callsubr
          hintmask 00110000
          -46 386 -68 callgsubr
        </CharString>
        <CharString name="Ohookabove">
          -23 callsubr
          41 -21 215 -20 hstemhm
          hintmask 11000000
          -107 callsubr
          hintmask 00110000
          -17 513 -101 callgsubr
        </CharString>
        <CharString name="Ohorn">
          68 callsubr
          62 -20 hstemhm
          678 84 -67 84 hintmask 00010000
          -40 callgsubr
          hintmask 00101000
          23 callgsubr
          hintmask 11010000
          -99 callsubr
          endchar
        </CharString>
        <CharString name="Ohornacute">
          68 callsubr
          51 -21 32 -20 110 -20 hstemhm
          678 84 -67 84 hintmask 00000100
          -40 callgsubr
          hintmask 00010010
          23 callgsubr
          hintmask 11000100
          -99 callsubr
          hintmask 00101000
          48 507 -94 callgsubr
        </CharString>
        <CharString name="Ohorndotbelow">
          68 callsubr
          62 -20 hstemhm
          280 -13 callsubr
          290 84 -67 84 hintmask 00000100
          -40 callgsubr
          hintmask 00100010
          23 callgsubr
          hintmask 11000100
          -99 callsubr
          hintmask 00001000
          -298 -561 rmoveto
          96 callgsubr
          endchar
        </CharString>
        <CharString name="Ohorngrave">
          68 callsubr
          51 -21 32 -20 110 -20 hstemhm
          678 84 -67 84 hintmask 00000100
          -40 callgsubr
          hintmask 00010010
          23 callgsubr
          hintmask 11000100
          -99 callsubr
          hintmask 00101000
          -46 385 -68 callgsubr
        </CharString>
        <CharString name="Ohornhookabove">
          68 callsubr
          41 -21 42 -20 193 -20 hstemhm
          678 84 -67 84 hintmask 00000100
          -40 callgsubr
          hintmask 00010010
          23 callgsubr
          hintmask 11000100
          -99 callsubr
          hintmask 00101000
          -17 512 -101 callgsubr
        </CharString>
        <CharString name="Ohorntilde">
          68 callsubr
          20 70 callgsubr
          678 84 -67 84 hintmask 00001000
          -40 callgsubr
          hintmask 00000100
          23 callgsubr
          hintmask 11001000
          -99 callsubr
          hintmask 00010000
          50 494 -93 callsubr
        </CharString>
        <CharString name="Ohungarumlaut">
          -23 callsubr
          51 93 callgsubr
          hstemhm
          hintmask 11000000
          -107 callsubr
          hintmask 00110000
          -106 553 -62 callsubr
        </CharString>
        <CharString name="Omacron">
          -23 callsubr
          40 64 hstemhm
          hintmask 11000000
          -107 callsubr
          hintmask 00100000
          43 396 -17 callgsubr
        </CharString>
        <CharString name="Omega">
          -61 callsubr
        </CharString>
        <CharString name="Omicron">
          -23 callsubr
          hstem
          -107 callsubr
          endchar
        </CharString>
        <CharString name="Oogonek">
          736 -21 64 609 64 hstem
          -52 callsubr
          endchar
        </CharString>
        <CharString name="Oogonekacute">
          736 -21 64 609 64 51 87 callsubr
          hintmask 11000000
          -52 callsubr
          hintmask 00110000
          76 508 -94 callgsubr
        </CharString>
        <CharString name="Orogate">
          736 752 345 rmoveto
          42 197 -95 154 -148 18 35 167 rcurveline
          -62 hlineto
          -35 -167 -160 -18 -158 -156 -42 -195 rlinecurve
          -42 -199 99 -149 147 -17 -36 -166 rcurveline
          62 hlineto
          36 166 157 18 159 151 41 196 rlinecurve
          -85 15 rmoveto
          -195 -42 -134 -122 -114 hhcurveto
          -118 -78 125 192 41 hvcurveto
          183 38 134 109 112 hhcurveto
          116 83 -113 -179 -38 hvcurveto
          endchar
        </CharString>
        <CharString name="Oslash">
          65 callsubr
          hstem
          129 85 495 85 vstem
          -80 callgsubr
          endchar
        </CharString>
        <CharString name="Oslash.dup">
          65 callsubr
          hstem
          129 85 495 85 vstem
          -80 callgsubr
          endchar
        </CharString>
        <CharString name="Oslashacute">
          65 callsubr
          28 87 callsubr
          129 85 495 85 hintmask 1111100110000000
          -80 callgsubr
          hintmask 0000011000000000
          55 523 -94 callgsubr
        </CharString>
        <CharString name="Otilde">
          -23 callsubr
          20 70 callgsubr
          hintmask 11000000
          -107 callsubr
          hintmask 00010000
          50 495 -93 callsubr
        </CharString>
        <CharString name="P">
          -22 callgsubr
        </CharString>
        <CharString name="Phi">
          722 21 -21 106 61 -60 61 358 61 -60 61 106 -20 hstemhm
          130 86 100 83 -60 83 6 83 -70 83 -60 83 106 86 hintmask 0000100000100000
          739 347 rmoveto
          24 112 -77 111 -162 18 rrcurveto
          hintmask 0000010000010000
          23 106 rlineto
          -83 hlineto
          hintmask 0011001010100000
          -23 -107 -149 -15 -137 -104 -25 -121 rlinecurve
          -26 -122 93 -103 142 -15 rrcurveto
          hintmask 1000000100000000
          -23 -107 rlineto
          83 hlineto
          hintmask 0101001011001000
          23 106 169 18 124 111 24 112 rlinecurve
          -387 -179 rmoveto
          -103 15 -53 73 20 91 19 91 85 73 108 15 rrcurveto
          hintmask 0010000000000000
          225 -179 rmoveto
          hintmask 0100100001001000
          -19 -87 -80 -78 -120 -15 77 360 rcurveline
          114 -16 46 -78 -18 -86 rrcurveto
          endchar
        </CharString>
        <CharString name="Pi">
          708 21 -21 630 61 hstem
          94 89 341 89 vstem
          613 hmoveto
          147 691 rlineto
          -519 hlineto
          -147 -691 rlineto
          89 hlineto
          134 630 rlineto
          341 hlineto
          -134 -630 rlineto
          endchar
        </CharString>
        <CharString name="Psi">
          778 21 -21 108 62 383 60 81 -20 hstemhm
          344 83 -60 83 -70 83 29 83 hintmask 01110011
          838 552 rmoveto
          13 61 rlineto
          -73 hlineto
          -43 -38 -10 -163 -34 hvcurveto
          -17 -77 -34 -158 -149 -35 112 524 rcurveline
          -83 hlineto
          -112 -524 -128 36 34 163 12 53 rlinecurve
          149 31 -7 42 -63 hhcurveto
          -73 hlineto
          -13 -61 62 -4 -9 -74 -15 -70 rlinecurve
          hintmask 00000100
          -23 -113 5 -158 174 -26 rrcurveto
          hintmask 10001000
          -23 -107 rlineto
          83 hlineto
          hintmask 00000100
          23 107 229 30 50 223 14 66 rlinecurve
          10 48 24 74 61 4 rrcurveto
          endchar
        </CharString>
        <CharString name="Q">
          736 -104 -21 103 64 610 64 hstem
          129 86 451 86 vstem
          752 345 rmoveto
          210 45 -111 161 -166 hhcurveto
          -170 -176 -163 -208 -45 hvcurveto
          -212 -45 115 -155 163 hhcurveto
          16 38 1 17 46 hvcurveto
          60 -121 rlineto
          103 hlineto
          -85 158 127 85 63 122 22 105 rlinecurve
          -86 hmoveto
          -13 -65 -36 -109 -107 -82 -57 105 rcurveline
          -89 hlineto
          71 -143 rlineto
          0 -29 -9 -29 -118 -83 117 186 39 vhcurveto
          187 40 135 120 116 hhcurveto
          120 80 -122 -185 -40 hvcurveto
          endchar
        </CharString>
        <CharString name="R">
          22 callsubr
          hstem
          48 callsubr
          vstem
          -100 callsubr
          endchar
        </CharString>
        <CharString name="Racute">
          22 callsubr
          123 callsubr
          48 callsubr
          hintmask 11100111
          -100 callsubr
          hintmask 00011000
          82 360 -94 callgsubr
        </CharString>
        <CharString name="Rcaron">
          22 callsubr
          63 -21 134 -20 hstemhm
          48 callsubr
          hintmask 11100111
          -100 callsubr
          hintmask 00011000
          48 362 -85 callsubr
        </CharString>
        <CharString name="Rcedilla">
          646 -33 callgsubr
          100 53 callsubr
          hstem
          48 callsubr
          vstem
          -100 callsubr
          -289 -661 -98 callgsubr
        </CharString>
        <CharString name="Rcommaaccent">
          646 -33 callgsubr
          100 53 callsubr
          hstemhm
          48 callsubr
          hintmask 00111111
          -100 callsubr
          hintmask 11000000
          -289 -661 -98 callgsubr
        </CharString>
        <CharString name="Rdblgrave">
          22 callsubr
          73 93 callgsubr
          hstemhm
          48 callsubr
          hintmask 11100111
          -100 callsubr
          hintmask 00011000
          -21 238 -89 callsubr
        </CharString>
        <CharString name="Rdotaccent">
          22 callsubr
          42 89 hstemhm
          107 callsubr
          -54 -13 callsubr
          74 81 hintmask 1110110010000000
          -100 callsubr
          hintmask 0001000100000000
          -93 228 -84 callsubr
          hintmask 0001001000000000
          -54 callgsubr
        </CharString>
        <CharString name="Rdotbelow">
          22 callsubr
          119 callsubr
          hintmask 11110011
          -100 callsubr
          hintmask 00000100
          -292 -708 -84 callsubr
          hintmask 00001000
          -54 callgsubr
        </CharString>
        <CharString name="Rdotbelowmacron">
          22 callsubr
          62 64 119 callsubr
          hintmask 1110101110000000
          -100 callsubr
          -292 -708 -84 callsubr
          hintmask 0000010000000000
          -19 -89 rlineto
          hintmask 0001000000000000
          430 956 -17 callgsubr
        </CharString>
        <CharString name="Rho">
          -22 callgsubr
        </CharString>
        <CharString name="S">
          23 callsubr
          hstem
          436 79 vstem
          539 189 rmoveto
          -103 callgsubr
          endchar
        </CharString>
        <CharString name="S_S">
          1111 -22 69 279 66 258 66 hstem
          436 79 477 79 vstem
          539 189 rmoveto
          -103 callgsubr
          556 hmoveto
          -103 callgsubr
          endchar
        </CharString>
        <CharString name="Sacute">
          23 callsubr
          51 87 callsubr
          436 79 hintmask 11100100
          539 189 rmoveto
          -103 callgsubr
          hintmask 00011000
          114 679 -94 callgsubr
        </CharString>
        <CharString name="Scaron">
          23 callsubr
          41 -21 134 -20 hstemhm
          436 79 hintmask 11100100
          539 189 rmoveto
          -103 callgsubr
          hintmask 00011000
          80 681 -85 callsubr
        </CharString>
        <CharString name="Scedilla">
          23 callsubr
          hstem
          436 79 vstem
          539 189 rmoveto
          -103 callgsubr
          -225 -235 -29 callsubr
          -109 59 callgsubr
        </CharString>
        <CharString name="Scircumflex">
          23 callsubr
          41 -21 134 -20 hstemhm
          436 79 hintmask 11100100
          539 189 rmoveto
          -103 callgsubr
          hintmask 00011000
          51 547 -79 callsubr
        </CharString>
        <CharString name="Sdotbelow">
          23 callsubr
          hstemhm
          190 -13 callsubr
          138 79 hintmask 11100100
          539 189 rmoveto
          -103 callgsubr
          hintmask 00001000
          -260 -389 rmoveto
          96 callgsubr
          endchar
        </CharString>
        <CharString name="Sigma">
          722 0 70 559 65 hstem
          665 hmoveto
          15 70 rlineto
          -240 hlineto
          -12 -12 -1 -12 hhcurveto
          -190 hlineto
          251 278 -162 283 rlineto
          202 hlineto
          12 12 -1 12 hhcurveto
          258 hlineto
          14 65 rlineto
          -609 hlineto
          -14 -64 168 -295 -302 -335 rlineto
          endchar
        </CharString>
        <CharString name="T">
          681 21 20 callgsubr
          hintmask 11110000
          -84 callgsubr
          hintmask 01001000
          30 callgsubr
          endchar
        </CharString>
        <CharString name="T_uni0303">
          106 callgsubr
          48 61 -3 61 67 callgsubr
          hintmask 11001100
          -84 callgsubr
          hintmask 01000010
          30 callgsubr
          hintmask 00010000
          47 232 -93 callsubr
        </CharString>
        <CharString name="T_uni0308">
          106 callgsubr
          48 80 hstemhm
          296 89 -16 -14 callgsubr
          -37 89 0 89 -64 -14 callgsubr
          hintmask 1101001000000000
          -84 callgsubr
          hintmask 0100000100000000
          30 callgsubr
          hintmask 0010010000000000
          -193 113 -58 callsubr
          hintmask 0010100001000000
          -66 callgsubr
          hintmask 0010000010000000
          -17 callsubr
          endchar
        </CharString>
        <CharString name="Tau">
          681 21 20 callgsubr
          hintmask 11110000
          -84 callgsubr
          hintmask 01001000
          30 callgsubr
          endchar
        </CharString>
        <CharString name="Tcaron">
          106 callgsubr
          69 -21 134 -20 67 callgsubr
          hintmask 11001100
          -84 callgsubr
          hintmask 01000010
          30 callgsubr
          hintmask 00110000
          39 247 -85 callsubr
        </CharString>
        <CharString name="Tcedilla">
          681 -171 -21 168 -20 65 20 callgsubr
          hintmask 00111100
          -84 callgsubr
          hintmask 11010010
          30 callgsubr
          -276 -647 -29 callsubr
          -110 59 callgsubr
        </CharString>
        <CharString name="Tdotbelow">
          106 callgsubr
          hstemhm
          252 -13 callsubr
          -64 89 44 89 0 89 hintmask 11001100
          -84 callgsubr
          hintmask 01000010
          30 callgsubr
          hintmask 00010000
          -301 -823 -84 callsubr
          hintmask 00100000
          -54 callgsubr
        </CharString>
        <CharString name="Theta">
          778 -22 62 266 83 266 61 hstem
          129 83 499 83 vstem
          794 345 rmoveto
          208 45 -118 163 -180 hhcurveto
          -183 -185 -166 -205 -44 hvcurveto
          -211 -45 123 -156 176 hhcurveto
          180 187 159 208 44 hvcurveto
          -83 hmoveto
          -187 -39 -146 -118 -128 hhcurveto
          -133 -92 121 184 39 hvcurveto
          186 40 145 124 130 hhcurveto
          134 89 -127 -183 -39 hvcurveto
          -65 -39 rmoveto
          18 83 rlineto
          -385 hlineto
          -18 -83 rlineto
          endchar
        </CharString>
        <CharString name="Thorn">
          583 21 -21 180 56 275 56 127 -20 hstem
          97 82 vstem
          606 374 rmoveto
          90 20 -52 103 -142 hhcurveto
          -131 98 callgsubr
          -83 -82 callsubr
          83 hlineto
          38 180 rlineto
          124 hlineto
          162 85 113 81 17 hvcurveto
          -81 -1 rmoveto
          -48 -10 -54 -89 -135 hhcurveto
          -96 hlineto
          59 275 rlineto
          89 hlineto
          118 43 -72 -66 -14 hvcurveto
          endchar
        </CharString>
        <CharString name="Tlinebelow">
          681 -187 64 144 20 callgsubr
          hintmask 01111000
          -84 callgsubr
          hintmask 00100100
          30 callgsubr
          hintmask 10000000
          -161 -810 -64 callgsubr
        </CharString>
        <CharString name="U">
          -18 callsubr
          hstem
          21 callgsubr
          vstem
          -104 callgsubr
          endchar
        </CharString>
        <CharString name="U_uni032F">
          688 -223 -21 111 67 44 56 660 -20 15 callgsubr
          hintmask 00111100
          -104 callgsubr
          hintmask 11001000
          -182 -477 -65 callgsubr
        </CharString>
        <CharString name="Uacute">
          -18 callsubr
          93 -21 122 -20 15 callgsubr
          hintmask 11001100
          -104 callgsubr
          hintmask 00110000
          76 635 -94 callgsubr
        </CharString>
        <CharString name="Ubreve">
          -18 callsubr
          72 67 111 -20 15 callgsubr
          hintmask 11001100
          -104 callgsubr
          hintmask 00110000
          66 691 -95 callsubr
          endchar
        </CharString>
        <CharString name="Ucaron">
          -18 callsubr
          83 -21 134 -20 15 callgsubr
          hintmask 11001100
          -104 callgsubr
          hintmask 00110000
          42 637 -85 callsubr
        </CharString>
        <CharString name="Ucircumflex">
          -18 callsubr
          83 -21 134 -20 15 callgsubr
          hintmask 11001100
          -104 callgsubr
          hintmask 00110000
          13 503 -79 callsubr
        </CharString>
        <CharString name="Udblgrave">
          -18 callsubr
          93 93 callgsubr
          15 callgsubr
          hintmask 11001100
          -104 callgsubr
          hintmask 00110000
          1 513 -89 callsubr
        </CharString>
        <CharString name="Udieresis">
          -18 callsubr
          62 80 hstemhm
          242 89 42 -14 callgsubr
          77 -14 callgsubr
          19 78 hintmask 1101000110000000
          -104 callgsubr
          hintmask 0010010000000000
          -190 503 -58 callsubr
          hintmask 0010100100000000
          -66 callgsubr
          hintmask 0010001000000000
          -17 callsubr
          endchar
        </CharString>
        <CharString name="Udieresisacute">
          -18 callsubr
          62 80 123 callsubr
          242 89 42 -14 callgsubr
          77 -14 callgsubr
          19 78 hintmask 1100010001100000
          -104 callgsubr
          hintmask 0010000100000000
          -190 503 -58 callsubr
          hintmask 0010001001000000
          -66 callgsubr
          hintmask 0011100010000000
          -17 callsubr
          198 254 -94 callgsubr
        </CharString>
        <CharString name="Udieresiscaron">
          -18 callsubr
          62 80 63 -21 134 -20 hstemhm
          242 89 42 -14 callgsubr
          77 -14 callgsubr
          19 78 hintmask 1100010001100000
          -104 callgsubr
          hintmask 0010000100000000
          -190 503 -58 callsubr
          hintmask 0010001001000000
          -66 callgsubr
          hintmask 0011100010000000
          -17 callsubr
          164 256 -85 callsubr
        </CharString>
        <CharString name="Udieresisgrave">
          -18 callsubr
          62 80 123 callsubr
          242 89 42 -14 callgsubr
          77 -14 callgsubr
          19 78 hintmask 1100010001100000
          -104 callgsubr
          hintmask 0010000100000000
          -190 503 -58 callsubr
          hintmask 0010001001000000
          -66 callgsubr
          hintmask 0011100010000000
          -17 callsubr
          76 132 -68 callgsubr
        </CharString>
        <CharString name="Udotbelow">
          -18 callsubr
          hstemhm
          242 89 -75 -13 callsubr
          299 78 hintmask 11100100
          -104 callgsubr
          hintmask 00001000
          -298 -433 rmoveto
          96 callgsubr
          endchar
        </CharString>
        <CharString name="Ugrave">
          -18 callsubr
          93 -21 122 -20 15 callgsubr
          hintmask 11001100
          -104 callgsubr
          hintmask 00110000
          -46 513 -68 callgsubr
        </CharString>
        <CharString name="Uhookabove">
          -18 callsubr
          83 -21 215 -20 15 callgsubr
          hintmask 11001100
          -104 callgsubr
          hintmask 00110000
          -17 640 -101 callgsubr
        </CharString>
        <CharString name="Uhorn">
          113 callgsubr
          155 77 77 83 -61 77 16 83 -66 83 -77 77 hintmask 0000000100000000
          838 694 rmoveto
          1 vlineto
          hintmask 0100000010000000
          135 callgsubr
          hintmask 0000000100000000
          -17 -82 1 -1 rlineto
          hintmask 1011101001000000
          -87 callgsubr
          hintmask 0000010100000000
          22 callgsubr
          endchar
        </CharString>
        <CharString name="Uhornacute">
          687 -22 55 734 -21 32 -20 110 -83 callsubr
          -32 246 -94 callgsubr
        </CharString>
        <CharString name="Uhorndotbelow">
          113 callgsubr
          -75 -13 callsubr
          122 77 77 83 -61 77 16 83 -66 83 -77 77 hintmask 0000000001000000
          838 694 rmoveto
          1 vlineto
          hintmask 0100000000100000
          17 82 -1 1 rlineto
          -81 52 callsubr
          1 -1 rlineto
          hintmask 1011001010010000
          -78 callgsubr
          hintmask 0000010000000000
          -378 -822 -84 callsubr
          hintmask 0000100000000000
          -54 callgsubr
        </CharString>
        <CharString name="Uhorngrave">
          687 -22 55 734 -21 32 -20 110 -83 callsubr
          -126 124 -68 callgsubr
        </CharString>
        <CharString name="Uhornhookabove">
          687 -22 55 724 -21 42 -20 193 -83 callsubr
          -97 251 -101 callgsubr
        </CharString>
        <CharString name="Uhorntilde">
          687 -22 55 703 61 -3 61 92 callsubr
          155 77 77 83 -61 77 16 83 -66 83 -77 77 hintmask 0000000010000000
          838 694 rmoveto
          1 vlineto
          hintmask 0000000001000000
          135 callgsubr
          hintmask 0000000010000000
          -17 -82 1 -1 rlineto
          hintmask 1001110100100000
          -87 callgsubr
          hintmask 0000001010000000
          22 callgsubr
          hintmask 0010000000000000
          -30 233 -29 callsubr
          hintmask 0100000000000000
          -34 -9 -17 -86 callgsubr
          hintmask 0010000000000000
          -34 callgsubr
          hintmask 0100000000000000
          -55 callsubr
          hintmask 0010000000000000
          34 9 -88 callsubr
          hintmask 0100000000000000
          16 callsubr
          hintmask 0010000000000000
          -44 callsubr
        </CharString>
        <CharString name="Uhungarumlaut">
          -18 callsubr
          93 93 callgsubr
          15 callgsubr
          hintmask 11001100
          -104 callgsubr
          hintmask 00110000
          -106 680 -62 callsubr
        </CharString>
        <CharString name="Umacron">
          -18 callsubr
          82 64 15 callgsubr
          hintmask 11011000
          -104 callgsubr
          hintmask 00100000
          43 523 -17 callgsubr
        </CharString>
        <CharString name="Uogonek">
          688 -212 70 120 56 660 -20 hstem
          21 callgsubr
          vstem
          643 233 rmoveto
          98 461 -32 callgsubr
          -99 -462 rlineto
          -132 -28 -98 -66 -84 hhcurveto
          -82 -68 63 135 28 hvcurveto
          99 462 -20 callsubr
          -98 -461 -30 -137 81 -105 123 -12 rlinecurve
          -41 -28 -32 -38 -7 -40 rrcurveto
          -71 callgsubr
          -79 callgsubr
          7 34 31 28 38 23 120 20 113 102 28 130 rrcurveto
          endchar
        </CharString>
        <CharString name="Upsilon">
          778 21 -21 649 67 hstem
          56 79 209 89 209 79 cntrmask 00111000
          839 555 rmoveto
          101 19 -65 60 -78 hhcurveto
          -115 -68 -112 -110 -38 hvcurveto
          -1 hlineto
          79 5 -1 143 -131 hhcurveto
          -78 -91 -61 -100 -23 hvcurveto
          78 hlineto
          54 13 41 40 48 hhcurveto
          73 43 -57 -212 -45 hvcurveto
          -81 -380 rlineto
          89 hlineto
          81 380 rlineto
          223 47 71 46 67 hhcurveto
          48 24 -39 -55 -10 hvcurveto
          endchar
        </CharString>
        <CharString name="Uring">
          688 -22 56 660 47 74 47 15 callgsubr
          hintmask 11011000
          -104 callgsubr
          hintmask 01100000
          -85 545 -91 callgsubr
          -54 -40 -43 -10 13 callsubr
          endchar
        </CharString>
        <CharString name="Utilde">
          -18 callsubr
          62 61 -3 61 15 callgsubr
          hintmask 11001100
          -104 callgsubr
          hintmask 00010000
          50 622 -93 callsubr
        </CharString>
        <CharString name="V">
          29 callgsubr
          hstem
          162 638 vstem
          800 694 rmoveto
          -78 hlineto
          -206 -342 -25 -41 -116 -193 -19 -46 rlinecurve
          -1 hlineto
          1 40 -20 110 -4 24 -77 448 rcurveline
          -93 hlineto
          125 -39 callgsubr
          92 hlineto
          endchar
        </CharString>
        <CharString name="W">
          944 -30 callgsubr
          hstem
          162 915 vstem
          -92 callsubr
          endchar
        </CharString>
        <CharString name="Wacute">
          944 -30 callgsubr
          93 87 callsubr
          162 915 hintmask 11001000
          -92 callsubr
          hintmask 00110000
          121 868 -94 callgsubr
        </CharString>
        <CharString name="Wcircumflex">
          944 -30 callgsubr
          83 -21 134 -20 hstemhm
          162 915 hintmask 11001000
          -92 callsubr
          hintmask 00110000
          58 -9 callgsubr
        </CharString>
        <CharString name="Wdieresis">
          944 115 callgsubr
          162 915 -576 -14 callgsubr
          77 -14 callgsubr
          hintmask 11010000
          -92 callsubr
          hintmask 00100100
          -145 90 callsubr
          hintmask 00101001
          -66 callgsubr
          hintmask 00100010
          -17 callsubr
          endchar
        </CharString>
        <CharString name="Wgrave">
          944 -30 callgsubr
          93 87 callsubr
          162 915 hintmask 11001000
          -92 callsubr
          hintmask 00110000
          -1 746 -68 callgsubr
        </CharString>
        <CharString name="X">
          -6 callsubr
        </CharString>
        <CharString name="Xi">
          667 0 74 -74 75 246 74 218 75 -74 74 hstemhm
          hintmask 00001000
          749 613 rmoveto
          16 75 rlineto
          -572 hlineto
          hintmask 00010000
          -16 -75 rlineto
          125 hlineto
          hintmask 00001000
          162 1 rlineto
          hintmask 01010000
          160 -1 rlineto
          -613 vmoveto
          16 75 rlineto
          -128 hlineto
          hintmask 10000000
          -163 -1 rlineto
          hintmask 01100000
          -163 1 rlineto
          -128 hlineto
          -16 -75 rlineto
          581 321 rmoveto
          16 74 rlineto
          -444 hlineto
          -16 -74 rlineto
          endchar
        </CharString>
        <CharString name="Y">
          29 callgsubr
          hstemhm
          290 86 -27 86 hintmask 01010000
          811 694 rmoveto
          -88 hlineto
          -204 -226 -22 -26 -81 -95 -13 31 1 2 -12 24 rlinecurve
          -136 290 rlineto
          -105 hlineto
          198 -416 rlineto
          hintmask 10100000
          -59 -278 rlineto
          86 hlineto
          hintmask 01010000
          59 277 rlineto
          endchar
        </CharString>
        <CharString name="Yacute">
          29 callgsubr
          93 87 callsubr
          290 -81 callsubr
          hintmask 00110000
          273 591 -94 callgsubr
        </CharString>
        <CharString name="Ycircumflex">
          29 callgsubr
          83 -21 134 -20 hstemhm
          290 -81 callsubr
          hintmask 00110000
          210 459 -79 callsubr
        </CharString>
        <CharString name="Ydieresis">
          667 115 callgsubr
          290 86 -27 86 -73 -14 callgsubr
          77 -14 callgsubr
          hintmask 0100100000000000
          811 694 rmoveto
          -88 hlineto
          -204 -226 -22 -26 -81 -95 -13 31 1 2 -12 24 rlinecurve
          -136 290 rlineto
          -105 hlineto
          198 -416 rlineto
          hintmask 1001000000000000
          -59 -278 rlineto
          86 hlineto
          hintmask 0100100000000000
          59 277 rlineto
          hintmask 0010001000000000
          7 459 -58 callsubr
          hintmask 0010010010000000
          -66 callgsubr
          hintmask 0010000100000000
          -17 callsubr
          endchar
        </CharString>
        <CharString name="Ydotbelow">
          29 callgsubr
          hstemhm
          245 -13 callsubr
          -63 -81 callsubr
          hintmask 00010000
          -101 -477 -84 callsubr
          hintmask 00100000
          -54 callgsubr
        </CharString>
        <CharString name="Ygrave">
          29 callgsubr
          93 87 callsubr
          290 -81 callsubr
          hintmask 00110000
          151 469 -68 callgsubr
        </CharString>
        <CharString name="Yhookabove">
          29 callgsubr
          83 -21 215 -20 hstemhm
          290 -81 callsubr
          hintmask 00110100
          180 596 -101 callgsubr
        </CharString>
        <CharString name="Ytilde">
          29 callgsubr
          62 70 callgsubr
          290 -81 callsubr
          hintmask 00010000
          247 578 -93 callsubr
        </CharString>
        <CharString name="Z">
          69 callgsubr
          hstem
          56 504 vstem
          -76 callsubr
          endchar
        </CharString>
        <CharString name="Zacute">
          69 callgsubr
          123 callsubr
          56 504 hintmask 11001000
          -76 callsubr
          hintmask 00110000
          625 868 -94 callgsubr
        </CharString>
        <CharString name="Zcaron">
          69 callgsubr
          63 -21 134 -20 hstemhm
          56 504 hintmask 11001000
          -76 callsubr
          hintmask 00110000
          591 870 -85 callsubr
        </CharString>
        <CharString name="Zdotaccent">
          69 callgsubr
          42 89 hstemhm
          56 504 -143 -13 callsubr
          hintmask 11010000
          -76 callsubr
          hintmask 00100100
          450 736 -84 callsubr
          hintmask 00101000
          -54 callgsubr
        </CharString>
        <CharString name="Zdotbelow">
          69 callgsubr
          hstemhm
          56 504 -342 -13 callsubr
          hintmask 11100000
          -76 callsubr
          hintmask 00001000
          251 -200 rmoveto
          96 callgsubr
          endchar
        </CharString>
        <CharString name="Zeta">
          69 callgsubr
          hstem
          56 504 vstem
          -76 callsubr
          endchar
        </CharString>
        <CharString name="a">
          -70 callgsubr
          hstem
          -107 callgsubr
          endchar
        </CharString>
        <CharString name="aacute">
          -70 callgsubr
          87 93 callgsubr
          hstemhm
          hintmask 11100000
          -107 callgsubr
          hintmask 00011000
          157 500 -78 callsubr
        </CharString>
        <CharString name="abreve">
          -70 callgsubr
          61 67 111 -20 hstemhm
          hintmask 11100000
          -107 callgsubr
          hintmask 00011000
          186 506 -4 callgsubr
        </CharString>
        <CharString name="abreveacute">
          -70 callgsubr
          61 67 268 -20 hstemhm
          hintmask 11100000
          -107 callgsubr
          hintmask 00011000
          186 506 -97 callgsubr
          8 157 -94 callgsubr
        </CharString>
        <CharString name="abrevedotbelow">
          -70 callgsubr
          61 67 111 -20 hstemhm
          152 -13 callsubr
          hintmask 11111000
          -107 callgsubr
          186 506 -97 callgsubr
          hintmask 00000010
          -317 -900 -84 callsubr
          hintmask 00000100
          -54 callgsubr
        </CharString>
        <CharString name="abrevegrave">
          -70 callgsubr
          61 67 111 -20 hstemhm
          hintmask 11100000
          -107 callgsubr
          hintmask 00011000
          186 506 -97 callgsubr
          -18 35 -15 callsubr
        </CharString>
        <CharString name="abrevehookabove">
          -70 callgsubr
          61 67 146 67 128 -20 hstemhm
          hintmask 11100000
          -107 callgsubr
          hintmask 00011100
          186 506 -97 callgsubr
          -39 152 -96 callgsubr
        </CharString>
        <CharString name="abrevetilde">
          481 -11 61 352 59 352 61 hstemhm
          cntrmask 11100000
          -107 callgsubr
          hintmask 11100000
          186 506 -97 callgsubr
          35 174 -29 callsubr
          -34 -8 -18 -86 callgsubr
          -34 callgsubr
          -55 callsubr
          34 9 -88 callsubr
          16 callsubr
          -44 callsubr
        </CharString>
        <CharString name="acaron">
          -70 callgsubr
          85 -21 172 -20 hstemhm
          hintmask 11100000
          -107 callgsubr
          hintmask 00011000
          171 503 -80 callsubr
        </CharString>
        <CharString name="acircumflex">
          -70 callgsubr
          85 -21 172 -20 hstemhm
          hintmask 11100000
          -107 callgsubr
          hintmask 00011000
          135 331 -89 callgsubr
          endchar
        </CharString>
        <CharString name="acircumflexacute">
          -70 callgsubr
          85 -21 291 -50 callsubr
          107 291 7 callgsubr
        </CharString>
        <CharString name="acircumflexdotbelow">
          -70 callgsubr
          85 -21 172 -20 hstemhm
          152 -13 callsubr
          hintmask 11111000
          -107 callgsubr
          135 331 -89 callgsubr
          hintmask 00000010
          -207 -725 -84 callsubr
          hintmask 00000100
          -54 callgsubr
        </CharString>
        <CharString name="acircumflexgrave">
          -70 callgsubr
          85 -21 134 -50 callsubr
          82 169 rmoveto
          -89 hlineto
          -172 122 rlineto
          111 hlineto
          endchar
        </CharString>
        <CharString name="acircumflexhookabove">
          -70 callgsubr
          85 -21 364 -50 callsubr
          157 286 36 callgsubr
          -15 13 rrcurveto
          15 -17 -25 5 -31 hhcurveto
          -35 -36 93 callsubr
          5 -40 rlineto
          1 hlineto
          1 hlineto
          27 21 32 17 31 hhcurveto
          19 11 -2 -7 10 hvcurveto
          6 -6 2 19 callgsubr
          -5 -19 rcurveline
          1 -1 rlineto
          26 hlineto
          1 1 5 -44 callgsubr
          19 11 14 19 4 20 rlinecurve
          endchar
        </CharString>
        <CharString name="acircumflextilde">
          -70 callgsubr
          85 -21 189 70 callgsubr
          hintmask 11100000
          -107 callgsubr
          hintmask 00010100
          136 331 -29 callgsubr
        </CharString>
        <CharString name="acute">
          500 548 36 callsubr
          539 694 -78 callsubr
        </CharString>
        <CharString name="acute.cap">
          500 517 117 callsubr
          hstem
          572 618 -94 callgsubr
        </CharString>
        <CharString name="acute.dup">
          500 548 36 callsubr
          539 694 -78 callsubr
        </CharString>
        <CharString name="acute.ts1">
          500 559 -21 185 -20 hstem
          570 723 rmoveto
          -77 hlineto
          -131 -139 -43 -46 rlineto
          60 hlineto
          endchar
        </CharString>
        <CharString name="adblgrave">
          -70 callgsubr
          87 93 callgsubr
          hstemhm
          hintmask 11100000
          -107 callgsubr
          hintmask 00011000
          122 333 -89 callsubr
        </CharString>
        <CharString name="adieresis">
          -70 callgsubr
          110 80 hstemhm
          248 -14 callsubr
          hintmask 11100000
          -107 callgsubr
          hintmask 00010100
          -44 377 55 callgsubr
        </CharString>
        <CharString name="adotbelow">
          -70 callgsubr
          hstemhm
          152 -13 callsubr
          hintmask 11100000
          -107 callgsubr
          hintmask 00001000
          -131 -394 rmoveto
          96 callgsubr
          endchar
        </CharString>
        <CharString name="ae">
          66 callsubr
          74 callsubr
          hintmask 1110111011000000
          -74 callsubr
          hintmask 0010000100000000
          -229 hlineto
          hintmask 1111010010000000
          -26 callgsubr
          endchar
        </CharString>
        <CharString name="ae.dup">
          66 callsubr
          74 callsubr
          hintmask 1110111011000000
          -74 callsubr
          hintmask 0010000100000000
          -229 hlineto
          hintmask 1111010010000000
          -26 callgsubr
          endchar
        </CharString>
        <CharString name="aeacute">
          66 callsubr
          87 93 callgsubr
          74 callsubr
          hintmask 1110100110110000
          -74 callsubr
          hintmask 0010000001000000
          -229 hlineto
          hintmask 1111000100100000
          -26 callgsubr
          hintmask 0000011000000000
          296 567 -78 callsubr
        </CharString>
        <CharString name="agrave">
          -70 callgsubr
          87 93 callgsubr
          hstemhm
          hintmask 11100000
          -107 callgsubr
          hintmask 00011000
          50 333 -51 callsubr
        </CharString>
        <CharString name="ahookabove">
          -70 callgsubr
          63 -21 215 -20 hstemhm
          hintmask 11100000
          -107 callgsubr
          hintmask 00011000
          101 446 -102 callsubr
        </CharString>
        <CharString name="amacron">
          -70 callgsubr
          118 64 hstemhm
          hintmask 11100000
          -107 callgsubr
          hintmask 00010000
          172 385 -64 callgsubr
        </CharString>
        <CharString name="ampersand">
          758 -22 64 250 61 -10 61 251 61 hstemhm
          73 69 0 78 46 78 135 69 hintmask 10110011
          700 -7 rmoveto
          14 67 rlineto
          -17 -58 -47 -1 -14 hhcurveto
          -45 -26 16 21 -25 hvcurveto
          109 80 81 111 58 117 -58 18 rcurveline
          -44 -90 -48 -59 -9 -11 -53 -67 -47 -37 -28 -19 -23 32 -61 94 -25 95 115 86 68 64 14 66 rrcurveto
          76 16 -32 81 -80 hhcurveto
          -85 -72 -91 -107 -23 hvcurveto
          -14 -65 5 -60 3 -30 rrcurveto
          hintmask 01000100
          2 -7 -1 -3 0 vvcurveto
          0 -2 -3 -9 -8 vhcurveto
          -8 -6 -5 -4 -14 -10 -23 -17 -56 -40 -8 -8 rrcurveto
          hintmask 00001000
          -40 -35 -21 -37 -8 -39 rrcurveto
          hintmask 10110111
          -90 -19 60 -78 106 hhcurveto
          98 80 41 17 34 hvcurveto
          -46 50 50 -12 48 hhcurveto
          12 44 0 15 64 hvcurveto
          -221 567 rmoveto
          -11 -51 -55 -49 -73 -56 -12 70 15 70 1 8 rrcurveto
          75 16 47 28 31 hhcurveto
          53 -7 -70 -25 -5 hvcurveto
          -89 -480 rmoveto
          -33 -70 -58 -5 -27 hhcurveto
          -71 -22 60 51 11 hvcurveto
          8 38 23 28 20 16 rrcurveto
          hintmask 01000000
          1 2 68 49 8 6 28 -96 72 -105 9 -11 rrcurveto
          endchar
        </CharString>
        <CharString name="anglearc">
          778 -62 -21 666 -20 hstemhm
          610 40 -32 40 hintmask 00100000
          725 20 rmoveto
          2 9 -3 7 -8 3 -126 50 rcurveline
          28 52 20 54 12 55 rrcurveto
          hintmask 11010000
          12 55 2 54 -6 52 148 50 rcurveline
          9 3 6 7 2 9 3 14 -12 10 -14 -5 -147 -50 rcurveline
          -9 45 -16 43 -23 38 rrcurveto
          5 -3 -5 3 -6 hhcurveto
          -11 -11 -9 -11 -2 hvcurveto
          -1 -5 1 -4 1 -3 21 -36 15 -39 8 -41 -486 -166 rcurveline
          -8 -3 -7 -7 -2 -9 -2 -9 4 -7 7 -3 416 -166 rcurveline
          -26 -41 -31 -39 -37 -36 -2 -3 -3 -4 -1 -5 rrcurveto
          -11 -3 7 -9 11 hhcurveto
          6 7 3 5 5 hvcurveto
          39 38 34 43 29 45 125 -50 rcurveline
          12 -5 16 10 3 14 rrcurveto
          -115 230 rmoveto
          -10 -50 -19 -50 -25 -47 -369 147 rcurveline
          431 147 rlineto
          hintmask 00100000
          5 -47 -2 -50 -11 -50 rrcurveto
          endchar
        </CharString>
        <CharString name="angleleft">
          389 -228 -21 1000 -20 hstem
          284 -229 rmoveto
          2 10 -4 12 -1 9 -2 11 rcurveline
          -61 361 -9 52 -1 8 -3 9 1 8 rlinecurve
          1 4 3 4 2 4 12 20 rcurveline
          181 304 26 45 29 45 24 45 rlinecurve
          2 2 1 3 3 vvcurveto
          11 3 -5 10 -11 129 callsubr
          -15 -3 -12 -27 -8 -15 -215 -360 rcurveline
          -37 -63 -5 -10 -10 -11 -2 -10 rlinecurve
          -2 -9 4 -10 2 -8 71 -422 rcurveline
          -19 2 0 -32 20 hhcurveto
          11 11 10 10 2 hvcurveto
          endchar
        </CharString>
        <CharString name="angleright">
          389 -228 -21 1000 -20 hstem
          331 251 rmoveto
          2 10 -3 10 -2 9 -71 422 rcurveline
          8 -2 1 41 -20 129 callsubr
          -8 -2 -9 -8 -2 -9 rrcurveto
          -2 vlineto
          -2 -12 5 -12 3 -11 69 -416 rcurveline
          1 -8 4 -10 -2 -9 rrcurveto
          -4 -3 -4 -2 -4 vhcurveto
          -12 -20 -256 -431 -3 -5 -4 -6 -2 -6 rlinecurve
          92 callgsubr
          2 hlineto
          12 1 8 12 6 10 12 21 rcurveline
          215 362 38 63 5 10 9 11 2 10 rlinecurve
          endchar
        </CharString>
        <CharString name="aogonek">
          481 -11 61 352 59 hstem
          -56 callgsubr
          endchar
        </CharString>
        <CharString name="aogonekacute">
          481 -11 61 352 59 87 93 callgsubr
          hstemhm
          hintmask 11000000
          -56 callgsubr
          hintmask 00110000
          157 500 -78 callsubr
        </CharString>
        <CharString name="aring">
          -70 callgsubr
          56 47 74 47 hstemhm
          383 61 hintmask 11100100
          -107 callgsubr
          hintmask 00011000
          46 407 -91 callgsubr
          -55 -40 -43 -9 -3 callgsubr
          54 40 43 10 hvcurveto
          endchar
        </CharString>
        <CharString name="aringacute">
          -70 callgsubr
          56 47 74 47 157 -20 hstemhm
          383 61 hintmask 11100010
          -107 callgsubr
          hintmask 00011100
          46 407 -91 callgsubr
          -55 -40 -43 -9 -3 callgsubr
          54 40 43 10 hvcurveto
          83 242 -94 callgsubr
        </CharString>
        <CharString name="asciicircum">
          556 583 -21 123 59 hstem
          119 566 vstem
          685 584 rmoveto
          -249 160 -317 -160 6 -22 298 123 245 -123 rlineto
          endchar
        </CharString>
        <CharString name="asciitilde">
          556 193 133 callsubr
          617 290 1 callgsubr
          26 -17 -20 30 55 callsubr
        </CharString>
        <CharString name="asciitilde.low">
          556 0 133 callsubr
          576 97 1 callgsubr
          25 -17 -20 31 55 callsubr
        </CharString>
        <CharString name="asterisk">
          500 327 99 callgsubr
          hstem
          287 69 11 69 vstem
          528 436 rmoveto
          2 12 -3 9 -8 6 -6 5 -29 16 -72 44 122 59 rcurveline
          18 9 11 5 4 19 rrcurveto
          24 5 -18 12 -14 hhcurveto
          -11 -4 -3 -10 -16 hvcurveto
          -111 -67 9 30 24 84 5 25 rlinecurve
          27 6 -21 8 -12 hhcurveto
          -16 -21 -10 -25 -5 hvcurveto
          -5 -25 -12 -84 -5 -30 -83 69 rcurveline
          11 -13 -7 0 -5 hhcurveto
          -14 -22 -12 -24 -5 hvcurveto
          -3 -12 3 -9 8 -6 6 -5 30 -16 71 -44 -121 -59 rcurveline
          -18 -9 -11 -5 -4 -19 rrcurveto
          -24 -5 17 -12 14 hhcurveto
          11 5 3 10 16 hvcurveto
          110 67 -8 -30 -24 -84 -6 -25 rlinecurve
          -27 -5 20 -8 12 hhcurveto
          16 21 10 25 5 hvcurveto
          6 25 12 84 4 30 79 -64 rcurveline
          -13 15 3 -3 11 hhcurveto
          14 23 12 24 5 hvcurveto
          endchar
        </CharString>
        <CharString name="asterisk.math">
          500 50 99 callgsubr
          hstemhm
          229 69 -32 53 -32 53 -33 69 hintmask 00001000
          469 160 rmoveto
          6 27 -28 7 -17 10 -24 16 -27 20 -26 10 1 2 rcurveline
          30 10 35 20 31 16 21 10 31 7 6 27 rrcurveto
          18 4 -11 19 -20 hhcurveto
          -16 -16 -13 -9 -14 hvcurveto
          -32 -19 -32 -21 -31 -18 rrcurveto
          hintmask 01000100
          9 45 18 45 9 45 rrcurveto
          22 5 -9 17 -22 hhcurveto
          -20 -17 -14 -24 -6 hvcurveto
          hintmask 00001000
          -9 -45 -2 -46 -9 -45 -25 18 -22 21 -24 19 rrcurveto
          9 -10 -10 13 -16 hhcurveto
          -20 -19 -19 -18 -4 hvcurveto
          -6 -27 27 -7 17 -10 25 -16 27 -20 26 -10 -1 -2 rcurveline
          -30 -10 -35 -20 -32 -16 -21 -10 -30 -7 -6 -27 rrcurveto
          -18 -4 11 -19 20 hhcurveto
          16 16 13 9 14 hvcurveto
          hintmask 00010000
          32 19 31 21 32 18 rrcurveto
          hintmask 10100000
          -9 -45 -18 -45 -10 -45 rrcurveto
          -22 -4 9 -17 22 hhcurveto
          20 17 14 24 5 hvcurveto
          hintmask 00010000
          10 45 2 46 9 45 24 -18 23 -21 24 -19 rrcurveto
          -9 10 10 -13 16 hhcurveto
          20 19 19 18 4 hvcurveto
          endchar
        </CharString>
        <CharString name="at">
          667 -11 61 70 61 332 61 70 61 hstem
          130 75 109 75 145 75 vstem
          628 85 rmoveto
          -48 hlineto
          -15 -2 0 -4 -9 hvcurveto
          -27 -69 -53 -4 -30 hhcurveto
          -147 -85 134 163 35 hvcurveto
          175 37 152 122 129 hhcurveto
          43 49 -19 -76 11 hvcurveto
          15 -21 -28 10 -30 hhcurveto
          -98 -108 -97 -130 -27 hvcurveto
          -130 -28 67 -97 98 hhcurveto
          68 129 57 185 39 hvcurveto
          88 19 53 255 -222 hhcurveto
          -175 -189 -155 -203 -43 hvcurveto
          -202 -43 120 -156 179 hhcurveto
          110 90 58 38 42 hvcurveto
          -19 262 rmoveto
          -94 -20 -67 -72 -59 hhcurveto
          -59 -35 71 95 20 hvcurveto
          94 20 66 72 59 hhcurveto
          59 36 -71 -95 -20 hvcurveto
          endchar
        </CharString>
        <CharString name="atilde">
          -70 callgsubr
          90 70 callgsubr
          hintmask 11100000
          -107 callgsubr
          hintmask 00001000
          177 476 -11 callgsubr
        </CharString>
        <CharString name="b">
          11 callsubr
          64 298 rlineto
          -75 hlineto
          -148 -694 -1 callgsubr
        </CharString>
        <CharString name="backslash">
          500 68 callgsubr
          394 -230 rmoveto
          0 1 5 -2 13 vhcurveto
          -140 940 rlineto
          11 -2 -2 11 -14 hhcurveto
          -11 -10 -9 -11 -3 hvcurveto
          0 -1 -5 2 -13 vhcurveto
          141 -940 rlineto
          -11 1 2 -11 14 hhcurveto
          11 11 9 11 2 hvcurveto
          endchar
        </CharString>
        <CharString name="baht">
          667 0 56 274 61 247 56 hstem
          279 64 -64 78 -64 64 cntrmask 00011100
          650 188 rmoveto
          18 87 -71 71 -103 17 96 23 87 58 17 76 18 87 -78 78 -130 8 14 65 rcurveline
          -64 hlineto
          -13 -64 rlineto
          -196 -82 callsubr
          196 117 callgsubr
          64 hlineto
          14 64 rlineto
          4 hlineto
          144 124 90 98 21 hvcurveto
          -35 331 rmoveto
          -10 -50 -62 -56 -102 -17 51 238 rcurveline
          83 -13 52 -47 -12 -55 rrcurveto
          -239 -128 rmoveto
          -113 hlineto
          53 247 rlineto
          113 hlineto
          140 -449 rmoveto
          -14 -69 -87 -55 -99 -8 58 271 rcurveline
          90 -11 67 -56 -15 -72 rrcurveto
          -264 -133 rmoveto
          -113 hlineto
          58 274 rlineto
          113 hlineto
          endchar
        </CharString>
        <CharString name="bar">
          278 68 callgsubr
          73 40 158 40 vstem
          113 -217 rmoveto
          -10 callsubr
          endchar
        </CharString>
        <CharString name="bigcircle">
          38 callsubr
          618 -90 callgsubr
          endchar
        </CharString>
        <CharString name="blanksymbol">
          11 callsubr
          31 143 113 86 -34 47 -61 -47 15 69 rlineto
          -75 hlineto
          -30 -137 -98 -75 33 -47 47 35 -100 -470 -1 callgsubr
        </CharString>
        <CharString name="braceleft">
          500 -229 -21 487 24 489 -20 hstem
          376 -239 rmoveto
          2 10 -6 0 -9 1 -78 5 -28 45 -1 36 -1 11 1 2 7 35 32 150 rcurveline
          6 30 11 51 10 vvcurveto
          1 66 -58 26 -37 11 125 34 15 71 6 28 39 180 rcurveline
          15 72 5 22 29 25 22 18 28 24 71 4 5 1 5 4 1 6 rrcurveto
          11 2 -8 0 -12 hhcurveto
          -100 -99 -51 -72 -18 hvcurveto
          -39 -183 -20 -94 -3 -16 -32 -28 rlinecurve
          -17 -14 -33 -27 -64 -4 rrcurveto
          -7 -7 -1 -10 -2 hvcurveto
          -2 -10 6 0 10 -1 42 -3 81 -21 -22 -100 -42 -198 rcurveline
          -12 -58 -7 -34 44 -37 rrcurveto
          -30 37 63 -8 31 hhcurveto
          12 8 0 11 2 hvcurveto
          endchar
        </CharString>
        <CharString name="braceright">
          500 -229 -21 510 -21 511 -20 hstem
          243 67 vstem
          480 250 rmoveto
          2 10 -6 0 -10 1 -42 3 -80 21 21 100 42 198 rcurveline
          12 58 7 34 -44 37 rrcurveto
          29 -36 -63 9 -32 hhcurveto
          -10 -10 0 -11 -2 hvcurveto
          -2 -10 6 0 10 -1 78 -5 27 -45 1 -36 1 -11 0 -2 -8 -35 -32 -150 rcurveline
          -6 -30 -11 -51 -10 vvcurveto
          -1 -66 58 -26 37 -11 -125 -34 -15 -71 -6 -28 -38 -180 rcurveline
          -16 -72 -4 -22 -30 -25 -22 -18 -28 -24 -70 -4 -6 -1 -5 -4 -1 -6 rrcurveto
          -11 -2 10 0 10 hhcurveto
          100 100 51 72 17 hvcurveto
          39 183 20 94 3 16 32 28 rlinecurve
          17 14 33 27 64 4 rrcurveto
          7 7 1 10 2 hvcurveto
          endchar
        </CharString>
        <CharString name="bracketleft">
          289 -250 61 878 61 hstem
          213 -250 rmoveto
          13 61 rlineto
          -92 hlineto
          186 878 rlineto
          92 hlineto
          13 61 rlineto
          -164 hlineto
          -212 -1000 rlineto
          endchar
        </CharString>
        <CharString name="bracketright">
          289 -250 61 878 61 hstem
          133 -250 rmoveto
          212 1000 rlineto
          -164 hlineto
          -13 -61 rlineto
          92 hlineto
          -186 -878 rlineto
          -92 hlineto
          -13 -61 rlineto
          endchar
        </CharString>
        <CharString name="breve">
          130 callsubr
          111 27 callsubr
          endchar
        </CharString>
        <CharString name="breve.cap">
          500 496 67 111 -20 hstem
          32 callgsubr
          endchar
        </CharString>
        <CharString name="breve.ts1">
          611 526 67 130 -20 hstem
          234 61 328 61 vstem
          684 723 -29 callsubr
          -84 -18 -99 -46 -75 hhcurveto
          -74 -80 46 84 18 hvcurveto
          -61 hlineto
          -124 -27 101 -73 109 hhcurveto
          106 133 69 128 28 hvcurveto
          endchar
        </CharString>
        <CharString name="brokenbar">
          278 -229 -21 1000 -20 hstemhm
          73 40 39 40 0 40 39 40 hintmask 01001100
          232 343 rmoveto
          79 374 2 callgsubr
          -79 -374 rlineto
          -15 -3 2 -17 14 hhcurveto
          14 10 17 15 3 hvcurveto
          -119 -560 rmoveto
          79 374 rlineto
          15 4 -3 17 -14 hhcurveto
          hintmask 10110000
          -14 -9 -17 -15 -4 hvcurveto
          -79 -374 rlineto
          7 callsubr
          endchar
        </CharString>
        <CharString name="bullet">
          778 121 286 hstemhm
          272 286 -225 286 hintmask 10100000
          121 callgsubr
          hintmask 11000000
          -61 -286 rlineto
          endchar
        </CharString>
        <CharString name="c">
          54 callsubr
          hstem
          83 78 193 78 vstem
          -87 callsubr
          endchar
        </CharString>
        <CharString name="cacute">
          54 callsubr
          87 93 callgsubr
          hstemhm
          83 78 193 78 hintmask 11001100
          -87 callsubr
          hintmask 00110000
          109 654 -78 callsubr
        </CharString>
        <CharString name="caron">
          500 85 callgsubr
          553 697 -80 callsubr
        </CharString>
        <CharString name="caron.cap">
          98 callsubr
          134 -20 hstem
          538 620 -85 callsubr
        </CharString>
        <CharString name="caron.ts1">
          611 511 -21 255 -20 hstem
          635 745 rmoveto
          -60 -2 -151 -186 rlineto
          -2 hlineto
          -71 186 -18 2 rlineto
          -42 hlineto
          5 -23 10 -22 8 -22 43 -125 rcurveline
          16 -46 2 -5 1 -10 5 -2 rlinecurve
          50 hlineto
          14 6 15 10 8 hvcurveto
          41 52 86 113 16 21 19 22 14 22 rlinecurve
          endchar
        </CharString>
        <CharString name="ccaron">
          54 callsubr
          85 -21 172 -20 hstemhm
          83 78 193 78 hintmask 11001100
          -87 callsubr
          hintmask 00110000
          123 657 -80 callsubr
        </CharString>
        <CharString name="ccedilla">
          54 callsubr
          hstem
          83 78 193 78 vstem
          -87 callsubr
          -143 -86 -29 callsubr
          -109 59 callgsubr
        </CharString>
        <CharString name="ccircumflex">
          54 callsubr
          85 -21 172 -20 hstemhm
          83 78 193 78 hintmask 11001100
          -87 callsubr
          hintmask 00110000
          87 485 -89 callgsubr
          endchar
        </CharString>
        <CharString name="cdotaccent">
          54 callsubr
          105 89 hstemhm
          83 78 158 -13 callsubr
          -73 78 hintmask 11010010
          -87 callsubr
          hintmask 00100100
          -16 526 -84 callsubr
          hintmask 00101000
          -54 callgsubr
        </CharString>
        <CharString name="cedilla">
          62 callgsubr
        </CharString>
        <CharString name="cedilla.dup">
          62 callgsubr
        </CharString>
        <CharString name="cent">
          444 -10 64 343 64 hstemhm
          83 78 0 64 -27 64 58 64 -24 64 hintmask 11000010
          424 40 rmoveto
          8 67 -50 -34 -50 -15 -45 -4 rlinecurve
          73 343 42 -3 30 -10 41 -31 rlinecurve
          26 65 -46 30 -30 11 -49 2 rlinecurve
          hintmask 10101100
          10 47 rlineto
          -64 hlineto
          -11 -51 -117 -22 -86 -108 -23 -105 rlinecurve
          -23 -110 51 -99 100 -20 -13 -57 rcurveline
          64 hlineto
          12 54 rlineto
          hintmask 00010010
          48 4 49 15 53 31 rrcurveto
          -199 19 rmoveto
          -56 20 -25 63 17 81 14 66 43 79 77 22 rrcurveto
          endchar
        </CharString>
        <CharString name="cent.oldstyle">
          54 callsubr
          hstemhm
          83 78 172 64 -43 78 hintmask 10001000
          424 40 rmoveto
          8 67 rlineto
          -40 -60 -57 -14 -51 hhcurveto
          -13 -11 2 3 -11 hvcurveto
          hintmask 01010000
          168 334 25 -6 22 -12 29 -21 rlinecurve
          26 65 -26 18 -22 10 -24 7 rlinecurve
          29 55 rlineto
          -67 hlineto
          -24 -47 rlineto
          hintmask 11101000
          -11 hlineto
          -139 -107 -121 -118 -25 hvcurveto
          -17 -82 24 -76 55 -42 -44 -86 rcurveline
          66 hlineto
          31 60 rlineto
          -5 16 17 -2 19 hhcurveto
          54 58 14 37 62 hvcurveto
          -91 357 rmoveto
          -153 -305 -23 31 -7 46 11 54 rlinecurve
          hintmask 01010000
          17 76 54 93 101 5 rrcurveto
          endchar
        </CharString>
        <CharString name="centigrade">
          861 -21 64 430 40 0 64 14 64 -42 40 0 64 -62 40 hstemhm
          125 89 43 89 16 89 hintmask 1000010001000000
          819 42 rmoveto
          4 21 0 21 3 21 -26 -15 -26 -16 -28 -11 rrcurveto
          -17 -40 -43 -3 -40 hhcurveto
          -155 -46 167 139 29 hvcurveto
          135 29 115 169 159 hhcurveto
          hintmask 0000100000000000
          55 40 -15 -25 44 hvcurveto
          6 -5 6 -5 8 -3 31 82 rcurveline
          hintmask 1000010001000000
          23 -54 -59 12 -63 hhcurveto
          -197 -170 -184 -186 -39 hvcurveto
          -177 -38 83 -191 201 hhcurveto
          63 55 10 32 65 hvcurveto
          17 9 7 4 3 2 1 6 rlinecurve
          -473 543 rmoveto
          hintmask 0100001110000000
          59 13 -36 51 -66 hhcurveto
          -9 hlineto
          -60 -7 -51 -46 -12 -58 rrcurveto
          -60 -13 34 -51 68 hhcurveto
          9 hlineto
          59 7 52 47 12 58 rrcurveto
          -40 -1 rmoveto
          -38 -8 -39 -33 -39 hhcurveto
          hintmask 0011000000000000
          -35 -23 26 38 1 hvcurveto
          1 7 rlineto
          37 8 39 34 38 hhcurveto
          36 24 -26 -38 -1 hvcurveto
          endchar
        </CharString>
        <CharString name="circumflex">
          500 85 callgsubr
          517 525 -89 callgsubr
          endchar
        </CharString>
        <CharString name="circumflex.cap">
          98 callsubr
          134 -20 hstem
          509 486 -79 callsubr
        </CharString>
        <CharString name="circumflex.dup">
          500 85 callgsubr
          517 525 -89 callgsubr
          endchar
        </CharString>
        <CharString name="colon">
          278 0 112 callsubr
          hintmask 01000100
          257 361 rmoveto
          17 79 callgsubr
          hintmask 01001000
          -17 -83 rlineto
          6 -361 rmoveto
          hintmask 10010000
          46 callgsubr
          hintmask 10100000
          -18 -83 rlineto
          endchar
        </CharString>
        <CharString name="colonmonetary">
          639 -22 64 610 64 hstemhm
          141 89 69 64 -47 89 0 64 18 64 hintmask 11100110
          114 callgsubr
          -13 hlineto
          130 610 rlineto
          10 hlineto
          102 callgsubr
          -11 hlineto
          16 74 rlineto
          -64 hlineto
          -18 -83 -159 -38 -133 -153 -36 -169 rlinecurve
          hintmask 00001000
          -36 -167 67 -154 144 -39 rrcurveto
          hintmask 10110000
          -17 -83 rlineto
          64 hlineto
          15 74 rlineto
          12 hlineto
          83 42 13 43 80 hvcurveto
          -264 22 rmoveto
          -95 42 -33 124 27 125 28 132 90 119 107 40 rrcurveto
          endchar
        </CharString>
        <CharString name="comma">
          278 -104 -21 125 83 hstemhm
          97 83 -65 83 hintmask 01010000
          180 1 35 callsubr
          hintmask 11100000
          -5 callsubr
          endchar
        </CharString>
        <CharString name="copyleft">
          38 callsubr
          336 38 244 -90 callgsubr
          -125 hmoveto
          124 26 -62 109 -121 hhcurveto
          -41 -35 -7 -15 -43 hvcurveto
          -1 -51 rlineto
          17 29 34 15 50 hhcurveto
          88 42 -89 -103 -22 hvcurveto
          -96 -21 -76 -96 -95 hhcurveto
          -43 -28 6 33 -38 hvcurveto
          -13 -44 rlineto
          -27 39 22 -8 53 hhcurveto
          123 107 111 121 26 hvcurveto
          endchar
        </CharString>
        <CharString name="copyright">
          38 callsubr
          618 -90 callgsubr
          -207 -197 rmoveto
          5 44 rlineto
          -32 -52 -29 -7 -44 hhcurveto
          -95 -36 96 96 21 hvcurveto
          103 22 81 89 87 hhcurveto
          50 26 -16 -17 24 hvcurveto
          19 51 rlineto
          16 -35 -33 7 -42 hhcurveto
          -121 -108 -109 -124 -26 hvcurveto
          -121 -26 60 -111 123 hhcurveto
          52 27 8 27 50 hvcurveto
          endchar
        </CharString>
        <CharString name="copyright.alt">
          666 -111 38 590 38 hstem
          47 38 374 38 178 38 vstem
          713 222 rmoveto
          205 44 -101 128 -205 hhcurveto
          -204 -156 -128 -205 -44 hvcurveto
          -204 -43 101 -129 204 hhcurveto
          205 156 129 204 43 hvcurveto
          -38 hmoveto
          -181 -38 -139 -114 -181 hhcurveto
          -181 -89 114 181 38 hvcurveto
          181 39 138 114 181 hhcurveto
          181 90 -114 -181 -39 hvcurveto
          -183 -200 rmoveto
          5 44 rlineto
          -33 -53 -30 -6 -44 hhcurveto
          -97 -37 97 98 21 hvcurveto
          104 22 83 91 89 hhcurveto
          50 27 -16 -17 24 hvcurveto
          20 52 rlineto
          15 -37 -33 7 -43 hhcurveto
          -123 -109 -110 -126 -27 hvcurveto
          -123 -26 61 -113 125 hhcurveto
          53 27 8 28 52 hvcurveto
          endchar
        </CharString>
        <CharString name="currency">
          778 54 40 312 40 0 40 hstemhm
          156 40 50 40 311 40 50 40 hintmask 10111110
          627 15 rmoveto
          17 14 -10 13 -8 10 -58 75 rcurveline
          34 33 25 43 10 47 10 47 -7 43 -21 34 90 74 rcurveline
          12 10 17 13 -11 14 -12 14 -16 -13 -12 -10 -90 -74 rcurveline
          27 -28 -38 17 -47 hhcurveto
          -47 -47 -17 -27 -39 hvcurveto
          -59 75 -7 10 -11 13 -18 -14 rlinecurve
          -17 -14 11 -14 8 -10 58 -74 rcurveline
          -34 -34 -26 -43 -10 -47 -10 -47 8 -43 20 -33 -90 -75 rcurveline
          -12 -10 -17 -13 11 -14 12 -14 16 13 12 10 90 74 rcurveline
          -27 28 39 -17 47 hhcurveto
          47 47 17 27 39 hvcurveto
          59 -74 8 -10 10 -13 17 14 rlinecurve
          -30 235 rmoveto
          -86 -18 -84 -70 -86 hhcurveto
          -86 -55 70 86 18 hvcurveto
          hintmask 01000100
          86 18 85 70 86 hhcurveto
          86 54 -70 -86 -18 hvcurveto
          endchar
        </CharString>
        <CharString name="cwm">
          0 endchar
        </CharString>
        <CharString name="cwmascender">
          0 endchar
        </CharString>
        <CharString name="cwmcapital">
          0 endchar
        </CharString>
        <CharString name="d">
          517 -11 82 callgsubr
          hintmask 00101001
          26 callgsubr
          hintmask 11010110
          -69 callgsubr
          hintmask 01100000
          106 callsubr
          endchar
        </CharString>
        <CharString name="dagger">
          444 -195 -21 613 67 241 -20 hstemhm
          234 67 -43 67 -24 67 -39 67 hintmask 01101010
          478 430 81 callsubr
          5 20 7 28 25 65 12 37 14 37 8 37 rrcurveto
          8 2 7 33 -33 hhcurveto
          -34 -7 -32 -9 -2 hvcurveto
          -7 -35 -4 -58 -1 -24 -3 -46 -3 -32 -5 -29 37 callgsubr
          hintmask 10010000
          4 1 26 7 20 2 -7 -25 -7 -20 -10 -25 -30 -72 -1 -8 -12 -53 -32 -151 -24 -168 -12 -95 rrcurveto
          -14 -2 0 -6 11 hhcurveto
          12 1 5 13 5 hvcurveto
          17 50 14 53 13 51 17 63 27 103 20 96 12 54 1 7 1 71 rrcurveto
          23 2 21 3 27 vhcurveto
          hintmask 01000100
          81 callgsubr
          endchar
        </CharString>
        <CharString name="daggerdbl">
          444 -184 -21 194 66 389 67 194 -20 hstem
          268 67 -5 67 -5 67 cntrmask 00001110
          488 477 81 callsubr
          7 30 14 34 6 14 13 33 16 40 6 28 rrcurveto
          7 1 7 32 -34 hhcurveto
          -10 -24 -3 -36 -7 hvcurveto
          -5 -20 -2 -29 -35 vvcurveto
          -2 -41 -1 -28 -4 -26 37 callgsubr
          4 1 26 7 20 2 -7 -30 -14 -34 -6 -14 -13 -33 -16 -40 -6 -28 rrcurveto
          -35 -7 21 -4 11 hhcurveto
          30 9 25 14 3 hvcurveto
          5 20 2 29 35 vvcurveto
          2 41 1 28 4 26 81 callgsubr
          -96 -455 rmoveto
          17 3 -8 16 -21 hhcurveto
          -20 -18 -3 -8 -33 hvcurveto
          -27 -8 -8 -2 -22 -2 8 28 9 24 16 42 23 56 5 23 1 5 rrcurveto
          35 7 -21 4 -11 hhcurveto
          -30 -9 -25 -14 -3 hvcurveto
          -7 -29 -1 -43 -1 -34 1 -11 -2 -31 -4 -30 -23 2 -3 1 -37 11 rrcurveto
          9 -30 -17 0 -7 hhcurveto
          -25 -14 -20 -13 -2 hvcurveto
          -15 -4 7 -18 24 hhcurveto
          24 25 6 4 12 hvcurveto
          41 10 7 1 18 2 -8 -28 -10 -24 -15 -42 -23 -56 -5 -23 -1 -5 rrcurveto
          -35 -8 21 -4 11 hhcurveto
          30 10 25 14 3 hvcurveto
          6 29 1 43 1 34 rrcurveto
          11 1 31 5 30 vhcurveto
          22 -2 3 -1 38 -11 rrcurveto
          -9 31 18 0 5 hhcurveto
          24 13 18 15 4 hvcurveto
          endchar
        </CharString>
        <CharString name="dblbracketleft">
          403 -249 40 920 40 hstemhm
          198 40 0 40 115 40 hintmask 11011000
          327 -249 rmoveto
          9 40 rlineto
          -98 hlineto
          195 920 rlineto
          98 hlineto
          9 40 rlineto
          -262 hlineto
          -213 -1000 rlineto
          133 40 rmoveto
          -84 hlineto
          195 920 rlineto
          84 hlineto
          hintmask 10100000
          endchar
        </CharString>
        <CharString name="dblbracketright">
          403 -249 40 920 40 hstemhm
          76 40 115 40 0 40 hintmask 11110000
          231 -249 rmoveto
          213 1000 rlineto
          -261 hlineto
          -9 -40 rlineto
          97 hlineto
          -195 -920 rlineto
          -97 hlineto
          -9 -40 rlineto
          230 40 rmoveto
          -84 hlineto
          hintmask 11001000
          195 920 rlineto
          84 hlineto
          endchar
        </CharString>
        <CharString name="dblgrave.ts1">
          500 561 -21 183 -20 hstem
          340 540 rmoveto
          119 callgsubr
          226 hmoveto
          119 callgsubr
          endchar
        </CharString>
        <CharString name="dblverticalbar">
          398 68 callgsubr
          73 40 80 40 38 40 80 40 vstem
          113 -217 rmoveto
          -10 callsubr
          120 hmoveto
          -10 callsubr
          endchar
        </CharString>
        <CharString name="dcaron">
          84 callsubr
          73 -21 112 75 hstemhm
          83 78 195 78 73 75 hintmask 0010010010000000
          26 callgsubr
          hintmask 1101001100000000
          -69 callgsubr
          hintmask 0110110000000000
          106 callsubr
          249 281 -98 callgsubr
        </CharString>
        <CharString name="dcroat">
          84 callsubr
          82 64 93 -20 hstemhm
          83 78 99 75 21 78 39 75 -61 75 -55 75 -34 78 -64 78 hintmask 0000100000000100
          626 537 rmoveto
          14 64 -32 callgsubr
          hintmask 0000010000010000
          20 93 rlineto
          -75 hlineto
          hintmask 0000100100100000
          -20 -93 rlineto
          -152 117 callgsubr
          hintmask 0010100001000000
          152 hlineto
          -29 -137 rlineto
          hintmask 1001101011000000
          44 -44 -53 11 -37 hhcurveto
          -99 -100 -104 -129 131 callgsubr
          56 -102 95 hhcurveto
          33 61 9 54 67 hvcurveto
          -11 -52 rlineto
          78 hlineto
          114 537 rlineto
          hintmask 1101101100001000
          -162 -398 rmoveto
          -3 -14 -5 -18 -38 -29 rrcurveto
          -20 -28 -26 -8 -26 hhcurveto
          -62 -63 47 124 26 hvcurveto
          132 28 95 41 59 hhcurveto
          hintmask 0110000000000000
          106 callsubr
          endchar
        </CharString>
        <CharString name="ddotbelow">
          84 callsubr
          239 -20 hstemhm
          83 78 9 -13 callsubr
          78 78 73 75 hintmask 0010100001000000
          26 callgsubr
          hintmask 1101010010000000
          -69 callgsubr
          hintmask 0110000000000000
          106 callsubr
          hintmask 0000000100000000
          -169 -539 -84 callsubr
          hintmask 0000001000000000
          -54 callgsubr
        </CharString>
        <CharString name="degree">
          375 417 40 197 40 hstem
          167 40 197 40 vstem
          444 556 rmoveto
          76 16 -48 62 -76 hhcurveto
          -77 -76 -62 -76 -16 hvcurveto
          -77 -16 49 -62 77 hhcurveto
          76 75 62 77 16 hvcurveto
          -40 hmoveto
          -55 -12 -53 -44 -54 hhcurveto
          -55 -35 44 55 12 hvcurveto
          54 12 53 44 55 hhcurveto
          54 35 -44 -54 -12 hvcurveto
          endchar
        </CharString>
        <CharString name="diameter">
          778 -61 40 542 40 hstem
          131 40 542 40 vstem
          841 563 rmoveto
          11 2 -7 9 -11 hhcurveto
          -6 -6 -2 -4 -3 hvcurveto
          -113 -93 rlineto
          48 -45 -66 29 -78 hhcurveto
          -172 -168 -139 -172 -37 hvcurveto
          -17 -79 14 -71 37 -55 -113 -94 rcurveline
          -5 -3 -3 -5 -1 -6 rrcurveto
          -11 -3 7 -9 11 hhcurveto
          6 6 2 4 4 hvcurveto
          113 93 rlineto
          -48 44 66 -29 79 hhcurveto
          172 169 139 172 36 hvcurveto
          17 79 -14 72 -37 55 113 93 rcurveline
          4 3 3 5 2 6 rrcurveto
          -128 -313 rmoveto
          -150 -32 -146 -121 -150 hhcurveto
          -68 -57 25 41 -38 hvcurveto
          463 382 31 -47 12 -62 -15 -68 rlinecurve
          -50 206 rmoveto
          -463 -383 -31 48 -12 61 14 68 rlinecurve
          150 32 147 121 150 hhcurveto
          67 56 -25 -40 40 hvcurveto
          endchar
        </CharString>
        <CharString name="died">
          500 -6 -21 392 68 -66 68 191 -20 hstemhm
          205 78 6 78 -64 78 -37 78 hintmask 00100010
          522 367 rmoveto
          14 68 rlineto
          -155 hlineto
          hintmask 00010001
          41 191 -32 callgsubr
          hintmask 01000010
          -41 -193 rlineto
          -156 hlineto
          -14 -68 rlineto
          hintmask 11001100
          156 hlineto
          -84 -392 rlineto
          78 hlineto
          hintmask 00100100
          84 394 rlineto
          endchar
        </CharString>
        <CharString name="dieresis">
          500 571 80 hstemhm
          258 -14 callsubr
          hintmask 10100000
          97 callgsubr
          hintmask 11001000
          -63 callgsubr
          hintmask 10010000
          -17 callsubr
          endchar
        </CharString>
        <CharString name="dieresis.cap">
          500 486 80 hstemhm
          226 -14 callgsubr
          77 -14 callgsubr
          hintmask 10100000
          306 486 -58 callsubr
          hintmask 11001000
          -66 callgsubr
          hintmask 10010000
          -17 callsubr
          endchar
        </CharString>
        <CharString name="dieresis.dup">
          500 571 80 hstemhm
          258 -14 callsubr
          hintmask 10100000
          97 callgsubr
          hintmask 11001000
          -63 callgsubr
          hintmask 10010000
          -17 callsubr
          endchar
        </CharString>
        <CharString name="dieresis.ts1">
          500 598 83 hstemhm
          238 41 callsubr
          hintmask 10100000
          321 598 rmoveto
          46 callgsubr
          hintmask 11001000
          -18 -83 rlineto
          277 hmoveto
          80 callsubr
        </CharString>
        <CharString name="discount">
          500 1 124 502 124 hstemhm
          202 124 -22 124 47 124 hintmask 11101000
          599 730 rmoveto
          11 3 -6 10 -11 129 callsubr
          -9 -2 -6 -8 -4 -7 -14 -19 rcurveline
          -446 -633 -11 -17 -24 -26 -3 -16 rlinecurve
          -11 -3 5 -10 13 hhcurveto
          1 hlineto
          11 1 6 9 7 9 101 143 rcurveline
          191 272 82 117 95 134 10 13 17 20 2 11 rlinecurve
          -263 -86 50 callsubr
          -20 -5 11 -5 14 hhcurveto
          hintmask 11010000
          70 hlineto
          16 10 4 13 6 hvcurveto
          92 -626 50 callsubr
          hintmask 10100000
          -20 -5 11 -5 14 hhcurveto
          70 hlineto
          hintmask 00010000
          16 10 4 13 6 hvcurveto
          endchar
        </CharString>
        <CharString name="divide">
          778 85 83 62 40 61 83 hstemhm
          365 83 -65 83 -49 83 -65 83 hintmask 01100010
          28 callgsubr
          -274 81 rmoveto
          46 callgsubr
          hintmask 00100100
          -18 -83 rlineto
          31 -246 rmoveto
          hintmask 10001000
          80 callsubr
        </CharString>
        <CharString name="divorced">
          500 -92 -21 141 72 303 71 141 -20 hstemhm
          65 76 0 76 -30 78 77 78 -32 76 0 76 143 70 hintmask 0110010010100000
          217 251 rmoveto
          102 22 -41 121 -115 -5 -4 -1 -5 hhcurveto
          -108 -13 -86 -102 -23 -107 rrcurveto
          -100 -21 39 -123 115 hhcurveto
          116 94 119 104 22 hvcurveto
          536 hmoveto
          101 22 -40 122 -115 -4 -4 -1 -4 hhcurveto
          -118 -14 -80 -107 -22 -101 rrcurveto
          -101 -21 43 -122 113 hhcurveto
          114 94 118 105 22 hvcurveto
          -488 -364 rmoveto
          hintmask 1111101101100000
          155 728 -32 callgsubr
          -155 -728 rlineto
          -46 361 rmoveto
          -59 -13 -42 -89 -84 hhcurveto
          -74 -15 69 66 6 hvcurveto
          2 11 rlineto
          61 13 41 96 90 hhcurveto
          67 22 -63 -67 -8 hvcurveto
          537 -23 rmoveto
          -1 -5 -1 -6 -2 -5 rrcurveto
          -64 -20 -46 -70 -73 hhcurveto
          -79 -11 82 66 14 hvcurveto
          5 25 rlineto
          60 18 48 70 71 hhcurveto
          79 13 -85 -68 -15 hvcurveto
          endchar
        </CharString>
        <CharString name="dlinebelow">
          517 -187 64 112 82 callgsubr
          hintmask 0001010010000000
          26 callgsubr
          hintmask 0110101100000000
          -69 callgsubr
          hintmask 0011000000000000
          106 callsubr
          hintmask 1000000000000000
          -29 -526 -64 callgsubr
        </CharString>
        <CharString name="dollar">
          500 -35 -21 45 68 581 68 44 -20 hstemhm
          209 58 -48 58 14 73 -7 58 -35 58 hintmask 0000001000000000
          484 195 rmoveto
          18 83 -29 98 -109 23 rrcurveto
          hintmask 0000000100000000
          51 241 61 -6 35 -24 28 -27 rlinecurve
          26 66 -52 42 -42 10 -42 3 rlinecurve
          hintmask 0001010010000000
          9 46 rlineto
          -58 hlineto
          -10 -47 -116 -20 -72 -90 -17 -80 rlinecurve
          -9 -44 -5 -113 138 -34 -57 -268 rcurveline
          -47 5 -60 21 -42 46 -27 -68 rcurveline
          22 -18 50 -41 91 -9 rrcurveto
          hintmask 1000100000000000
          -10 -46 rlineto
          58 hlineto
          hintmask 0010010100000000
          10 48 104 17 83 90 20 96 rlinecurve
          -175 219 rmoveto
          -64 17 -13 54 9 41 10 50 45 48 61 14 rrcurveto
          52 -456 rmoveto
          hintmask 0100001000000000
          -11 -51 -41 -56 -66 -18 53 251 rcurveline
          51 -15 26 -52 -12 -59 rrcurveto
          endchar
        </CharString>
        <CharString name="dollar.oldstyle">
          610 -9 64 -61 -21 697 64 17 -20 hstemhm
          60 73 -37 73 46 59 42 59 -50 59 -24 59 -38 59 51 59 48 59 hintmask 0001000000011000
          598 202 rmoveto
          19 92 -54 72 -76 30 -12 4 rcurveline
          56 263 37 -8 41 -13 29 -22 rlinecurve
          6 -3 5 -5 8 -2 9 20 10 21 5 20 3 17 -91 32 -48 8 5 23 rcurveline
          -59 hlineto
          hintmask 0010000000000000
          -4 -17 rlineto
          -51 hlineto
          hintmask 0001010100100000
          4 17 rlineto
          -59 hlineto
          -6 -25 rlineto
          0 -32 -12 -19 -9 vhcurveto
          -71 -31 -67 -59 -17 -80 -2 -9 rcurveline
          -6 -67 28 -48 49 -32 16 -11 10 -3 32 -12 -62 -291 rcurveline
          hintmask 0000100000000000
          -36 9 -34 11 -31 17 -18 9 -14 13 -17 10 -8 -20 -13 -24 -3 -18 rrcurveto
          hintmask 0100011000000000
          -3 -14 27 -11 12 -5 38 -20 42 -15 44 -7 -5 -24 rcurveline
          59 hlineto
          hintmask 1000000000000000
          4 18 rlineto
          51 hlineto
          hintmask 0110000010001000
          -4 -18 rlineto
          59 hlineto
          7 30 95 19 93 90 19 90 rlinecurve
          -179 214 rmoveto
          -47 15 50 239 rlineto
          51 hlineto
          hintmask 0000000001000000
          -157 -225 rmoveto
          -33 19 -52 21 14 65 12 56 56 31 47 19 rrcurveto
          hintmask 1000000100000000
          163 -465 rmoveto
          -13 -59 -51 -38 -54 -24 50 236 rcurveline
          42 -20 37 -41 -11 -54 rrcurveto
          -180 -136 rmoveto
          -51 hlineto
          60 282 47 -15 rlineto
          endchar
        </CharString>
        <CharString name="dong">
          517 -64 64 hstem
          602 545 rmoveto
          13 61 rlineto
          -74 hlineto
          19 88 rlineto
          -71 hlineto
          -19 -88 rlineto
          -144 hlineto
          -13 -61 124 callsubr
          -28 -130 rlineto
          42 -41 -52 10 -35 hhcurveto
          -94 -95 -99 -122 -26 hvcurveto
          -125 -26 52 -97 91 hhcurveto
          31 58 9 51 64 hvcurveto
          -11 -49 rlineto
          74 hlineto
          109 510 rlineto
          -56 -609 rmoveto
          14 64 rlineto
          -452 117 callgsubr
          353 231 rmoveto
          -2 -14 -5 -17 -36 -27 rrcurveto
          -19 -26 -26 -8 -24 hhcurveto
          -59 -60 45 118 25 hvcurveto
          125 27 90 39 56 hhcurveto
          43 23 -22 -30 15 hvcurveto
          endchar
        </CharString>
        <CharString name="dotaccent">
          278 566 89 hstemhm
          214 -13 callsubr
          hintmask 10100000
          303 566 -84 callsubr
          hintmask 11000000
          -54 callgsubr
        </CharString>
        <CharString name="dotaccent.alt">
          278 525 89 hstemhm
          206 -13 callsubr
          hintmask 10100000
          295 525 -84 callsubr
          hintmask 11000000
          -54 callgsubr
        </CharString>
        <CharString name="dotaccent.cap">
          278 486 89 hstemhm
          197 -13 callsubr
          hintmask 10100000
          286 486 -84 callsubr
          hintmask 11000000
          -54 callgsubr
        </CharString>
        <CharString name="dotlessi">
          -13 callgsubr
          hstem
          81 75 19 75 vstem
          -65 callsubr
          endchar
        </CharString>
        <CharString name="dotlessj">
          47 callsubr
          hstem
          203 75 vstem
          -74 callgsubr
          endchar
        </CharString>
        <CharString name="e">
          -60 callsubr
          hstem
          -106 callsubr
          endchar
        </CharString>
        <CharString name="eacute">
          -60 callsubr
          87 93 callgsubr
          hstemhm
          hintmask 11100000
          -106 callsubr
          hintmask 00011000
          96 420 -78 callsubr
        </CharString>
        <CharString name="ebreve">
          -60 callsubr
          61 67 111 -20 hstemhm
          hintmask 11100000
          -106 callsubr
          hintmask 00011000
          125 426 -4 callgsubr
        </CharString>
        <CharString name="ecaron">
          -60 callsubr
          85 -21 172 -20 hstemhm
          hintmask 11100000
          -106 callsubr
          hintmask 00011000
          110 423 -80 callsubr
        </CharString>
        <CharString name="ecircumflex">
          -60 callsubr
          85 -21 172 -20 hstemhm
          hintmask 11100000
          -106 callsubr
          hintmask 00011000
          74 251 -89 callgsubr
          endchar
        </CharString>
        <CharString name="ecircumflexacute">
          -60 callsubr
          85 -21 291 -37 callgsubr
          107 291 7 callgsubr
        </CharString>
        <CharString name="ecircumflexdotbelow">
          -60 callsubr
          85 -21 172 -20 hstemhm
          134 -13 callsubr
          hintmask 11111000
          -106 callsubr
          74 251 -89 callgsubr
          hintmask 00000010
          -207 -725 -84 callsubr
          hintmask 00000100
          -54 callgsubr
        </CharString>
        <CharString name="ecircumflexgrave">
          -60 callsubr
          85 -21 134 -37 callgsubr
          82 169 rmoveto
          -89 hlineto
          -172 122 rlineto
          111 hlineto
          endchar
        </CharString>
        <CharString name="ecircumflexhookabove">
          -60 callsubr
          85 -21 364 -20 hstemhm
          hintmask 11100000
          461 219 rmoveto
          7 34 15 75 -27 60 rrcurveto
          62 -27 -59 11 -36 hhcurveto
          -111 -113 -106 -129 -27 hvcurveto
          -132 -28 74 -105 120 hhcurveto
          63 62 24 28 45 hvcurveto
          8 65 rlineto
          -52 -75 -66 -4 -23 hhcurveto
          -80 -49 71 98 18 hvcurveto
          263 55 rmoveto
          -247 hlineto
          76 32 64 50 57 hhcurveto
          52 49 -34 -92 -7 hvcurveto
          hintmask 00011000
          75 251 -88 callgsubr
        </CharString>
        <CharString name="ecircumflextilde">
          -60 callsubr
          85 -21 189 70 callgsubr
          hintmask 11100000
          -106 callsubr
          hintmask 00010100
          75 251 -29 callgsubr
        </CharString>
        <CharString name="edblgrave">
          -60 callsubr
          87 93 callgsubr
          hstemhm
          hintmask 11100000
          -106 callsubr
          hintmask 00011000
          61 253 -89 callsubr
        </CharString>
        <CharString name="edieresis">
          -60 callsubr
          110 80 hstemhm
          230 -14 callsubr
          hintmask 11100010
          -106 callsubr
          hintmask 00010100
          -105 297 55 callgsubr
        </CharString>
        <CharString name="edotaccent">
          -60 callsubr
          105 89 hstemhm
          297 -13 callsubr
          hintmask 11100000
          -106 callsubr
          hintmask 00010100
          -29 292 -84 callsubr
          hintmask 00011000
          -54 callgsubr
        </CharString>
        <CharString name="edotbelow">
          -60 callsubr
          hstemhm
          134 -13 callsubr
          hintmask 11100000
          -106 callsubr
          hintmask 00001000
          -192 -474 rmoveto
          96 callgsubr
          endchar
        </CharString>
        <CharString name="egrave">
          -60 callsubr
          87 93 callgsubr
          hstemhm
          hintmask 11100000
          -106 callsubr
          hintmask 00011000
          -11 253 -51 callsubr
        </CharString>
        <CharString name="ehookabove">
          -60 callsubr
          63 -21 215 -20 hstemhm
          hintmask 11100000
          -106 callsubr
          hintmask 00011000
          40 366 -102 callsubr
        </CharString>
        <CharString name="eight">
          500 -22 40 callsubr
          hstem
          80 81 2 81 170 81 vstem
          495 -47 callsubr
        </CharString>
        <CharString name="eight.oldstyle">
          563 -22 40 callsubr
          hstemhm
          112 118 callgsubr
          527 -50 callgsubr
        </CharString>
        <CharString name="eight.prop">
          563 -22 40 callsubr
          hstem
          112 81 2 81 170 81 vstem
          527 -47 callsubr
        </CharString>
        <CharString name="eight.taboldstyle">
          500 -22 40 callsubr
          hstemhm
          80 118 callgsubr
          495 -50 callgsubr
        </CharString>
        <CharString name="ellipsis">
          626 0 83 hstem
          116 83 91 83 91 83 cntrmask 01110000
          181 hmoveto
          46 callgsubr
          -18 -83 rlineto
          257 hmoveto
          46 callgsubr
          -18 -83 rlineto
          257 hmoveto
          46 callgsubr
          -18 -83 rlineto
          endchar
        </CharString>
        <CharString name="emacron">
          -60 callsubr
          118 64 hstemhm
          hintmask 11100000
          -106 callsubr
          hintmask 00010000
          111 305 -64 callgsubr
        </CharString>
        <CharString name="emdash">
          1000 244 61 hstemhm
          52 999 -986 999 hintmask 10100000
          1051 244 rmoveto
          13 61 rlineto
          -999 hlineto
          hintmask 11000000
          -13 -61 rlineto
          endchar
        </CharString>
        <CharString name="emdash.alt">
          667 245 61 hstem
          718 245 rmoveto
          13 61 rlineto
          -666 hlineto
          -13 -61 rlineto
          endchar
        </CharString>
        <CharString name="endash">
          500 244 61 hstemhm
          52 499 -486 499 hintmask 10100000
          551 244 rmoveto
          13 61 rlineto
          -499 hlineto
          hintmask 11000000
          -13 -61 rlineto
          endchar
        </CharString>
        <CharString name="eng">
          517 -209 64 539 61 hstem
          81 111 callsubr
          vstem
          -93 callgsubr
          -70 -15 -29 -75 -60 hhcurveto
          -13 -64 rlineto
          96 76 103 106 23 hvcurveto
          endchar
        </CharString>
        <CharString name="eogonek">
          444 -212 70 131 61 169 55 126 61 hstem
          269 70 vstem
          -45 callgsubr
          endchar
        </CharString>
        <CharString name="eogonekacute">
          444 -212 70 131 61 169 55 126 61 87 93 callgsubr
          hstemhm
          269 70 hintmask 11110010
          -45 callgsubr
          hintmask 00001100
          96 420 -78 callsubr
        </CharString>
        <CharString name="equal">
          778 130 40 160 40 hstemhm
          88 665 -623 665 hintmask 11010000
          795 350 rmoveto
          124 callgsubr
          -599 hlineto
          -14 -19 0 -20 -5 88 callgsubr
          15 hhcurveto
          597 hlineto
          15 77 callsubr
          -42 -200 rmoveto
          20 4 -19 0 -15 hhcurveto
          -597 hlineto
          hintmask 10100000
          -15 -19 0 -20 -4 89 callsubr
        </CharString>
        <CharString name="ereversed">
          -60 callsubr
          hstem
          462 226 rmoveto
          129 27 -67 106 -111 hhcurveto
          -36 -63 -11 -62 -55 hvcurveto
          -51 -60 -17 -75 -7 -34 rrcurveto
          309 hlineto
          -98 -24 -79 -71 -80 hhcurveto
          -23 -66 4 52 -51 hvcurveto
          -20 -65 rlineto
          -28 33 52 -24 63 hhcurveto
          120 118 105 132 28 hvcurveto
          -65 48 rmoveto
          -247 hlineto
          92 33 63 34 52 hhcurveto
          57 42 -50 -76 hvcurveto
          endchar
        </CharString>
        <CharString name="estimated">
          669 -10 61 311 55 234 61 hstem
          717 362 rmoveto
          22 104 2 113 -69 71 rrcurveto
          42 -41 -61 20 -65 hhcurveto
          -207 -159 -189 -178 -38 hvcurveto
          -1 -7 rlineto
          -182 -35 106 -166 196 hhcurveto
          85 86 17 27 84 hvcurveto
          9 3 12 2 2 10 4 19 0 20 3 19 -24 -7 -23 -10 -23 -7 rrcurveto
          -21 -70 -69 -11 -68 hhcurveto
          -13 hlineto
          -106 7 -63 85 -12 98 -4 39 4 41 9 41 rrcurveto
          460 55 rmoveto
          -442 hlineto
          108 34 121 126 123 hhcurveto
          119 67 -99 -135 -22 hvcurveto
          endchar
        </CharString>
        <CharString name="eth">
          -53 callgsubr
          hstem
          520 242 rmoveto
          9 38 17 81 -25 94 -18 67 -33 59 -45 48 72 48 rcurveline
          -25 46 -88 -58 -32 24 -35 20 -42 13 rlinecurve
          -41 -52 32 -13 28 -16 27 -19 rlinecurve
          -76 -51 26 -46 90 61 40 -42 28 -51 13 -59 rlinecurve
          16 -24 -34 11 -36 hhcurveto
          -122 -121 -110 -131 131 callgsubr
          81 -100 117 hhcurveto
          69 62 33 40 44 hvcurveto
          74 67 15 67 9 46 rrcurveto
          -81 -17 rmoveto
          -99 -21 -75 -73 -82 hhcurveto
          -75 -54 61 116 25 hvcurveto
          121 26 86 49 65 hhcurveto
          86 39 -78 -97 -20 hvcurveto
          endchar
        </CharString>
        <CharString name="etilde">
          -60 callsubr
          90 70 callgsubr
          hintmask 11100000
          -106 callsubr
          hintmask 00001000
          116 396 -11 callgsubr
        </CharString>
        <CharString name="eturned">
          -28 callgsubr
        </CharString>
        <CharString name="exclam">
          319 0 83 113 -21 519 -20 hstemhm
          118 83 -65 83 47 83 hintmask 11101100
          349 694 rmoveto
          -83 hlineto
          -94 -476 -9 -43 rlineto
          67 hlineto
          9 43 rlineto
          -38 -218 rmoveto
          80 callsubr
        </CharString>
        <CharString name="exclamdown">
          319 -173 -21 519 -20 112 83 hstemhm
          77 83 47 83 -66 83 hintmask 00100100
          290 417 rmoveto
          17 79 callgsubr
          hintmask 11111000
          -17 -83 rlineto
          -47 -611 rmoveto
          93 476 9 43 rlineto
          -67 hlineto
          -9 -43 -109 -476 rlineto
          endchar
        </CharString>
        <CharString name="f">
          306 34 callsubr
          35 75 vstem
          -52 callgsubr
          endchar
        </CharString>
        <CharString name="f_f">
          583 21 -21 386 58 200 61 hstemhm
          101 75 7 75 35 75 10 75 -36 75 3 75 0 75 hintmask 1111110110000000
          -52 callgsubr
          277 hmoveto
          15 67 rlineto
          3 -12 -29 8 -37 hhcurveto
          -94 -87 -71 -100 -21 hvcurveto
          hintmask 1110001001000000
          -114 -534 15 callsubr
          110 hlineto
          12 58 rlineto
          -113 hlineto
          26 119 rlineto
          74 15 69 7 26 hhcurveto
          20 26 -2 -15 31 hvcurveto
          endchar
        </CharString>
        <CharString name="f_f_i">
          814 21 -21 386 58 168 83 -51 61 hstemhm
          101 75 7 75 121 75 202 75 19 75 hintmask 1110000110000000
          865 27 callgsubr
          26 121 rlineto
          hintmask 0001000000000000
          107 callgsubr
          21 20 -6 -11 15 hvcurveto
          hintmask 0010000000000000
          15 68 rlineto
          hintmask 1101111000000000
          8 -21 -6 2 -31 hhcurveto
          -74 -74 -70 -100 -21 hvcurveto
          -114 -535 15 callsubr
          -84 241 -6 callgsubr
          endchar
        </CharString>
        <CharString name="f_f_l">
          814 34 callsubr
          121 75 202 75 73 75 vstem
          452 627 -6 callgsubr
          279 -627 rmoveto
          148 694 2 callsubr
          -2 -18 callgsubr
          -114 -535 15 callsubr
          endchar
        </CharString>
        <CharString name="f_i">
          536 21 -21 386 58 121 61 -14 83 -51 61 hstemhm
          101 75 7 75 120 75 19 75 hintmask 1101000110000000
          587 27 callgsubr
          hintmask 1110111000000000
          26 121 rlineto
          107 callgsubr
          21 20 -7 -11 15 hvcurveto
          15 68 rlineto
          2 -6 -23 9 -29 hhcurveto
          -74 -74 -70 -100 -21 hvcurveto
          -20 -91 33 callgsubr
          endchar
        </CharString>
        <CharString name="f_k">
          792 21 -21 386 58 200 61 hstemhm
          101 75 7 75 -63 72 239 75 -49 72 167 72 hintmask 0110010000000000
          376 -18 callgsubr
          -20 -91 rlineto
          -74 hlineto
          -12 -58 rlineto
          hintmask 1101101010000000
          19 callsubr
          513 -386 rmoveto
          -132 272 204 172 rlineto
          -90 hlineto
          -247 -208 rlineto
          hintmask 1000000100000000
          98 458 rlineto
          -72 -82 callsubr
          69 hlineto
          30 141 rlineto
          hintmask 1000001010000000
          98 83 108 -224 rlineto
          endchar
        </CharString>
        <CharString name="f_l">
          536 34 callsubr
          120 75 73 75 vstem
          376 -18 callgsubr
          -20 -91 33 callgsubr
          195 -386 rmoveto
          148 694 2 callsubr
          endchar
        </CharString>
        <CharString name="five">
          500 -22 90 callgsubr
          279 72 vstem
          492 -24 callsubr
        </CharString>
        <CharString name="five.oldstyle">
          558 -216 90 callgsubr
          273 72 52 89 vstem
          486 -22 callsubr
        </CharString>
        <CharString name="five.prop">
          558 -22 90 callgsubr
          314 72 vstem
          527 -24 callsubr
        </CharString>
        <CharString name="five.taboldstyle">
          500 -216 90 callgsubr
          238 72 52 89 vstem
          451 -22 callsubr
        </CharString>
        <CharString name="florin">
          306 34 callsubr
          35 75 vstem
          -52 callgsubr
          endchar
        </CharString>
        <CharString name="four">
          500 21 -21 171 61 424 -20 hstem
          348 73 vstem
          507 3 callgsubr
        </CharString>
        <CharString name="four.oldstyle">
          517 -173 -21 194 61 423 -20 hstemhm
          261 79 -38 79 -60 73 hintmask 01100100
          480 -3 callsubr
        </CharString>
        <CharString name="four.prop">
          517 21 -21 171 61 424 -20 hstem
          357 73 vstem
          516 3 callgsubr
        </CharString>
        <CharString name="four.taboldstyle">
          500 -173 -21 194 61 423 -20 hstemhm
          252 79 -38 79 -60 73 hintmask 01100100
          471 -3 callsubr
        </CharString>
        <CharString name="fraction">
          558 645 111 callgsubr
        </CharString>
        <CharString name="fraction.alt">
          0 366 111 callgsubr
        </CharString>
        <CharString name="g">
          -19 callgsubr
          3 callsubr
          hintmask 1111111010000000
          -34 callsubr
          hintmask 1111110100000000
          90 86 74 89 19 hvcurveto
          10 48 -14 37 -8 15 4 -1 rcurveline
          22 29 4 24 hhcurveto
          18 40 -3 0 hvcurveto
          -195 -100 rmoveto
          -78 -17 -52 -28 -43 hhcurveto
          -37 -48 23 83 18 hvcurveto
          83 18 57 23 37 hhcurveto
          43 41 -28 -78 -17 hvcurveto
          13 -364 rmoveto
          -44 -10 -76 -33 -82 hhcurveto
          -81 -64 31 47 10 hvcurveto
          3 1 13 65 78 hhcurveto
          90 hlineto
          hintmask 0000000010000000
          22 113 0 -69 -14 hvcurveto
          endchar
        </CharString>
        <CharString name="gacute">
          -19 callgsubr
          93 93 callgsubr
          3 callsubr
          hintmask 1111001110100000
          568 392 -104 callsubr
          hintmask 0000110010000000
          118 766 -78 callsubr
        </CharString>
        <CharString name="gbreve">
          -19 callgsubr
          67 67 111 -20 3 callsubr
          hintmask 1111001110100000
          568 392 -104 callsubr
          hintmask 0000110000000000
          147 772 -4 callgsubr
        </CharString>
        <CharString name="gcaron">
          -19 callgsubr
          91 -21 172 -20 3 callsubr
          hintmask 1111001110100000
          568 392 -104 callsubr
          hintmask 0000110000000000
          132 769 -80 callsubr
        </CharString>
        <CharString name="gcedilla">
          -19 callgsubr
          85 75 112 -20 3 callsubr
          hintmask 1111111110100000
          367 540 rmoveto
          16 75 rlineto
          -22 hlineto
          46 112 rlineto
          -37 hlineto
          -61 -113 -16 -74 rlineto
          275 -148 -104 callsubr
          endchar
        </CharString>
        <CharString name="gcircumflex">
          -19 callgsubr
          91 -21 172 -20 3 callsubr
          hintmask 1111001110100000
          568 392 -104 callsubr
          hintmask 0000110000000000
          96 597 -89 callgsubr
          endchar
        </CharString>
        <CharString name="gcommaaccent">
          -19 callgsubr
          85 75 112 -20 3 callsubr
          hintmask 1111111110100000
          367 540 rmoveto
          16 75 rlineto
          -22 hlineto
          46 112 rlineto
          -37 hlineto
          -61 -113 -16 -74 rlineto
          275 -148 -104 callsubr
          endchar
        </CharString>
        <CharString name="gdotaccent">
          -19 callgsubr
          111 89 hstemhm
          13 70 41 70 54 70 -28 -13 callsubr
          -25 70 -57 70 hintmask 1111011100010000
          -34 callsubr
          hintmask 1111011000100000
          90 86 74 89 19 hvcurveto
          10 48 -14 37 -8 15 4 -1 rcurveline
          22 29 4 24 hhcurveto
          18 40 -3 0 hvcurveto
          -195 -100 rmoveto
          -78 -17 -52 -28 -43 hhcurveto
          -37 -48 23 83 18 hvcurveto
          83 18 57 23 37 hhcurveto
          43 41 -28 -78 -17 hvcurveto
          13 -364 rmoveto
          -44 -10 -76 -33 -82 hhcurveto
          -81 -64 31 47 10 hvcurveto
          3 1 13 65 78 hhcurveto
          90 hlineto
          hintmask 0000000000010000
          22 113 0 -69 -14 hvcurveto
          hintmask 0000100001000000
          -7 638 -84 callsubr
          hintmask 0000100010000000
          -54 callgsubr
        </CharString>
        <CharString name="germandbls">
          -57 callgsubr
        </CharString>
        <CharString name="germandbls.dup">
          -57 callgsubr
        </CharString>
        <CharString name="gnaborretni">
          472 325 -20 112 83 hstemhm
          45 78 17 67 -61 78 33 67 hintmask 11101100
          80 callgsubr
          -58 -36 -53 -13 -38 -4 rlinecurve
          70 355 10 26 8 27 5 27 rlinecurve
          7 32 rlineto
          95 callgsubr
          -15 -73 21 -67 95 -13 rrcurveto
          hintmask 00110000
          -6 -23 rlineto
          67 hlineto
          4 22 52 5 59 16 61 31 rlinecurve
          -178 215 rmoveto
          -46 -204 -36 9 -11 28 11 52 rlinecurve
          10 47 18 16 19 16 12 11 13 13 10 12 rrcurveto
          endchar
        </CharString>
        <CharString name="grave">
          500 548 36 callsubr
          432 527 -51 callsubr
        </CharString>
        <CharString name="grave.cap">
          500 517 117 callsubr
          hstem
          450 496 -68 callgsubr
        </CharString>
        <CharString name="grave.ts1">
          500 560 -21 184 -20 hstem
          409 539 rmoveto
          -96 183 -23 1 rlineto
          -53 hlineto
          112 -184 rlineto
          endchar
        </CharString>
        <CharString name="greater">
          778 747 250 rmoveto
          3 12 -7 5 -10 5 -499 261 rcurveline
          7 -11 -2 0 -3 hhcurveto
          -11 -11 -9 -11 -2 hvcurveto
          -2 -9 3 -6 13 -7 472 -248 rcurveline
          -578 -248 -15 -7 -6 -6 -2 -9 rlinecurve
          -11 -3 7 -9 11 hhcurveto
          3 2 0 7 15 hvcurveto
          609 261 13 5 9 5 2 12 rlinecurve
          endchar
        </CharString>
</ttFont>
